<?xml version="1.0" encoding="UTF-8" standalone="no"?>
<svg width="618px" height="300px" viewBox="0 0 618 300" version="1.1" xmlns="http://www.w3.org/2000/svg" xmlns:xlink="http://www.w3.org/1999/xlink" xmlns:sketch="http://www.bohemiancoding.com/sketch/ns">
    <title>bandeau_vintage</title>
    <description>Created with Sketch (http://www.bohemiancoding.com/sketch)</description>
    <defs></defs>
    <g id="Page 1" stroke="none" stroke-width="1" fill="none" fill-rule="evenodd">
        <path d="M33,36 L33,115 L584,115 C584,115 583.999997,112.918253 584,103.877625 C584,94.8369967 581.031011,97.2112459 581.031015,85.5562235 C581.031015,73.9012011 584,77.1039944 584,68.2806884 C583.999997,59.4573824 581.031013,59.7632625 581.031015,52.748082 C581.031015,45.7329015 584,36 584,36 L33,36 Z M33,36" id="Rectangle 1" fill="#D5FEFF"></path>
        <path d="M32.4481928,176.687134 C32.4481928,176.687134 38.1830117,185.458594 38.1830117,193.332337 C38.1830086,203.276767 32.4481928,203.236395 32.4481928,212.323481 C32.4481904,220.348293 38.1830115,228.481674 38.1830117,235.396082 C38.1830081,247.069643 32.4481928,255.469606 32.4481928,255.469606 L583.925498,255.469606 L583.925498,176.687134 L32.4481928,176.687134 Z M32.4481928,176.687134" id="Rectangle 1" fill="#D5FEFF"></path>
        <text id="10 cm" fill="#000000" transform="translate(14.607755, 76.353777) rotate(-270.000000) translate(-14.607755, -76.353777) " font-family="Helvetica" font-size="14" font-weight="normal" x="-10.1956863" y="81.8537774">
            <tspan>10 cm</tspan>
        </text>
        <path d="M32.4481928,51.4230034 L464.570052,36.0604213" id="Line" stroke="#4A4A4A" stroke-linecap="square" stroke-dasharray="2,2"></path>
        <path d="M33.6299299,99.086399 L465.357877,114.842893" id="Line" stroke="#4A4A4A" stroke-linecap="square" stroke-dasharray="2,2"></path>
        <path d="M590.5,192 L590.5,239.606557" id="Line" stroke="#4A4A4A" stroke-linecap="square" fill="#4A4A4A"></path>
        <path id="Line decoration-1" d="M590.5,239.000001 C591.55,235.220001 592.45,231.980001 593.5,228.200001 C591.4,228.200001 589.6,228.200001 587.5,228.200001 C588.55,231.980001 589.45,235.220001 590.5,239.000001 C590.5,239.000001 590.5,239.000001 590.5,239.000001 Z M590.5,239.000001" stroke="#4A4A4A" stroke-linecap="square" fill="#4A4A4A"></path>
        <path id="Line decoration-2" d="M590.5,192.8 C591.55,196.58 592.45,199.82 593.5,203.6 C591.4,203.6 589.6,203.6 587.5,203.6 C588.55,199.82 589.45,196.58 590.5,192.8 C590.5,192.8 590.5,192.8 590.5,192.8 Z M590.5,192.8" stroke="#4A4A4A" stroke-linecap="square" fill="#4A4A4A"></path>
        <text id="6 cm" fill="#000000" transform="translate(607.000000, 221.323523) rotate(-270.000000) translate(-607.000000, -221.323523) " font-family="Helvetica Neue" font-size="14" font-weight="normal" x="584.953869" y="229.241555">
            <tspan>6 cm</tspan>
        </text>
        <path d="M149.393829,177.375 L582.606171,191.625" id="Line" stroke="#4A4A4A" stroke-linecap="square" stroke-dasharray="2,2"></path>
        <path d="M148.394213,254.608696 L583.605787,237.391304" id="Line" stroke="#4A4A4A" stroke-linecap="square" stroke-dasharray="2,2"></path>
        <path d="M23.5,36 L23.5,114" id="Line" stroke="#4A4A4A" stroke-linecap="square" fill="#4A4A4A"></path>
        <path id="Line decoration-1" d="M23.5,36.8 C24.55,40.58 25.45,43.8200001 26.5,47.6000001 C24.4,47.6 22.6,47.6 20.5,47.5999999 C21.55,43.8199999 22.45,40.58 23.5,36.8 C23.5,36.8 23.5,36.8 23.5,36.8 Z M23.5,36.8" stroke="#4A4A4A" stroke-linecap="square" fill="#4A4A4A"></path>
        <path id="Line decoration-2" d="M23.5,114 C24.55,110.22 25.45,106.98 26.5,103.2 C24.4,103.2 22.6,103.2 20.5,103.2 C21.55,106.98 22.45,110.22 23.5,114 C23.5,114 23.5,114 23.5,114 Z M23.5,114" stroke="#4A4A4A" stroke-linecap="square" fill="#4A4A4A"></path>
        <path d="M466,26.5 L547.605769,26.5" id="Line" stroke="#4A4A4A" stroke-linecap="square" fill="#4A4A4A"></path>
        <path id="Line decoration-1" d="M466.8,26.5 C470.58,25.45 473.82,24.55 477.6,23.5 C477.6,25.6 477.6,27.4 477.6,29.5 C473.82,28.45 470.58,27.55 466.8,26.5 C466.8,26.5 466.8,26.5 466.8,26.5 Z M466.8,26.5" stroke="#4A4A4A" stroke-linecap="square" fill="#4A4A4A"></path>
        <path d="M149,264.5 L582,264.5" id="Line" stroke="#4A4A4A" stroke-linecap="square" fill="#4A4A4A"></path>
        <path id="Line decoration-1" d="M149.8,264.5 C153.58,263.45 156.82,262.55 160.6,261.5 C160.6,263.6 160.6,265.4 160.6,267.5 C156.82,266.45 153.58,265.55 149.8,264.5 C149.8,264.5 149.8,264.5 149.8,264.5 Z M149.8,264.5" stroke="#4A4A4A" stroke-linecap="square" fill="#4A4A4A"></path>
        <path id="Line decoration-2" d="M582,264.5 C578.22,263.45 574.98,262.55 571.2,261.5 C571.2,263.6 571.2,265.4 571.2,267.5 C574.98,266.45 578.22,265.55 582,264.5 C582,264.5 582,264.5 582,264.5 Z M582,264.5" stroke="#4A4A4A" stroke-linecap="square" fill="#4A4A4A"></path>
        <path d="M32.4481928,26.5 L465.75179,26.5" id="Line copy" stroke="#4A4A4A" stroke-linecap="square" fill="#4A4A4A"></path>
        <path id="Line copy decoration-1" d="M33.2481928,26.5 C37.0281929,25.45 40.268193,24.55 44.048193,23.5 C44.048193,25.6 44.048193,27.4 44.048193,29.5 C40.268193,28.45 37.0281929,27.55 33.2481928,26.5 C33.2481928,26.5 33.2481928,26.5 33.2481928,26.5 Z M33.2481928,26.5" stroke="#4A4A4A" stroke-linecap="square" fill="#4A4A4A"></path>
        <path id="Line copy decoration-2" d="M465.448201,26.5 C461.668201,25.45 458.428201,24.55 454.6482,23.5 C454.6482,25.6 454.6482,27.4 454.6482,29.5 C458.428201,28.45 461.668201,27.55 465.448201,26.5 C465.448201,26.5 465.448201,26.5 465.448201,26.5 Z M465.448201,26.5" stroke="#4A4A4A" stroke-linecap="square" fill="#4A4A4A"></path>
        <text id="55 cm" fill="#000000" font-family="Helvetica Neue" font-size="14" font-weight="normal" x="228" y="23.9180323">
            <tspan>55 cm</tspan>
        </text>
        <text id="55 cm" fill="#000000" font-family="Helvetica Neue" font-size="14" font-weight="normal" x="401" y="287.918032">
            <tspan>55 cm</tspan>
        </text>
        <text id="30 cm" fill="#000000" font-family="Helvetica Neue" font-size="14" font-weight="normal" x="542" y="22.9180323">
            <tspan>30 cm</tspan>
        </text>
        <path d="M549.388889,26.5 L583.611111,26.5" id="Line" stroke="#4A4A4A" stroke-linecap="square" stroke-dasharray="2"></path>
        <path d="M33,264.5 L114.605769,264.5" id="Line" stroke="#4A4A4A" stroke-linecap="square" stroke-dasharray="2" fill="#4A4A4A"></path>
        <text id="30 cm" fill="#000000" font-family="Helvetica Neue" font-size="14" font-weight="normal" x="37" y="287.584541">
            <tspan>30 cm</tspan>
        </text>
        <path d="M115.395349,264.5 L148.604651,264.5" id="Line" stroke="#4A4A4A" stroke-linecap="square" fill="#4A4A4A"></path>
        <path id="Line decoration-1" d="M148.39535,264.5 C144.61535,263.45 141.37535,262.55 137.59535,261.5 C137.59535,263.6 137.59535,265.4 137.59535,267.5 C141.37535,266.45 144.61535,265.55 148.39535,264.5 C148.39535,264.5 148.39535,264.5 148.39535,264.5 Z M148.39535,264.5" stroke="#4A4A4A" stroke-linecap="square" fill="#4A4A4A"></path>
        <path d="M585.613008,36.2273794 C585.613008,36.2273794 583.659789,43.3615244 583.144184,50.5506958 C582.686659,56.9300254 586.206098,60.6176901 586.35735,68.9485401 C586.439561,73.476635 582.67391,78.0860945 583.144184,87.0643974 C583.396124,91.8743622 585.613008,98.1956673 585.613008,99.0596647 C585.613008,99.9236621 587.219591,106.150712 586.35735,115.146617" id="Path 13" stroke="#4A4A4A" stroke-dasharray="2"></path>
        <path d="M31.4120093,176.996081 C31.4120093,176.996081 36.6980516,185.515869 36.6659452,193.543959 C36.6338387,201.572048 30.9780294,205.332845 30.9780293,211.929125 C30.9780293,218.525405 37.2925649,231.080882 37.2925646,234.769533 C37.2925642,238.458184 35.862559,249.19116 31.4120093,254.96277" id="Path 14" stroke="#4A4A4A" stroke-dasharray="2"></path>
    </g>
</svg>