<?xml version="1.0" encoding="UTF-8" standalone="no"?>
<svg width="618px" height="412px" viewBox="0 0 618 412" version="1.1" xmlns="http://www.w3.org/2000/svg" xmlns:xlink="http://www.w3.org/1999/xlink" xmlns:sketch="http://www.bohemiancoding.com/sketch/ns">
    <title>broche</title>
    <description>Created with Sketch (http://www.bohemiancoding.com/sketch)</description>
    <defs></defs>
    <g id="Page 1" stroke="none" stroke-width="1" fill="none" fill-rule="evenodd">
        <g id="Group1" transform="translate(104.000000, 75.000000)" stroke="#979797">
            <path d="M401.711149,0.238003954 C205.117397,0.23800913 209.253535,0 8.55162537,0 C7.66614782,2.3309787e-08 6.73858041,0.634950832 6.69649057,1.26990166 C4.38165597,36.1905064 2.06683168,71.1111111 2.06683168,71.1111111 L409.955446,71.1111111 C409.955446,71.1111111 409.418058,44.847577 409.418058,17.7720871 C409.418058,17.4897153 405.682512,0.238003954 401.711149,0.238003954 Z M401.711149,0.238003954" id="Rectangle 2" fill="#D8D8D8"></path>
            <path d="M20.3007635,0.457823731 C15.2727283,0.457823733 7.3840228,-0.799067654 4.59160588,2.48573037 C2.39271149,8.50330855 -0.735317361,64.0883788 1.86480192,70.473718 C5.61077102,85.0634099 50.7448921,78.9920673 50.7448921,78.9920673 L49.8338844,13.605966 C49.8338844,13.605966 18.4247468,17.0638361 7.70105447,3.56867019 C5.64577727,1.4933297 21.289793,0.457823731 20.3007635,0.457823731 Z M20.3007635,0.457823731" id="Path 1" fill-opacity="0.990923713" fill="#F7C2A5"></path>
            <path d="M366.762375,2.81580912 C366.548428,1.49330111 379.054325,0.614551358 378.066938,0.614551358 C372.970034,0.614551358 365.888426,0.221305632 364.521877,1.49330108 C361.509706,7.41891285 359.83949,64.0779329 362.397151,70.3841902 C366.058732,84.9818668 410.390968,77.8783919 410.390968,77.8783919 L410.390969,7.81441209 C410.390969,7.81441209 366.762375,10.5325255 366.762375,2.81580912 Z M366.762375,2.81580912" id="Path 1" fill-opacity="0.990923713" fill="#F7C2A5" transform="translate(385.766022, 40.081777) scale(-1, 1) translate(-385.766022, -40.081777) "></path>
        </g>
        <g id="Group2" transform="translate(105.000000, 185.000000)" stroke="#979797">
            <path d="M3,1 L3,41 L402,41 L402,1 L3,1 Z M3,1" id="Rectangle 2" fill="#D8D8D8"></path>
            <g id="Group" transform="translate(0.000000, 1.000000)" fill-opacity="0.990923713" fill="#F7C2A5">
                <path d="M3,0 C3,0 0.82421875,9.42187499 0.82421875,20 C0.824218472,29.421875 3,40 3,40 L30,40 L30,0 L3,0 Z M3,0" id="Rectangle 4"></path>
            </g>
            <path d="M377.634766,0.740234375 C377.634766,0.740234375 374.878906,7.9570313 374.878906,17.5234375 C374.878906,27.9570313 377.634766,40.7402344 377.634766,40.7402344 L404.634766,40.7402344 L404.634766,0.740234375 L377.634766,0.740234375 Z M377.634766,0.740234375" id="Rectangle 4" fill-opacity="0.990923713" fill="#F7C2A5"></path>
            <path d="M3.50390625,0.859375 C3.50390625,0.859375 401.588914,0.859375 401.588914,0.859375 C401.588914,0.859375 405.748032,0.859375 405.748047,12.4492188 L12.3769531,11.4316406 C12.3769527,0.859375 2.73561519,0.78125 3.50390625,0.859375 Z M3.50390625,0.859375" id="Path 5" fill-opacity="0.990923713" fill="#F7C2A5"></path>
            <path d="M3.50390625,29.1503906 C3.50390625,29.1503906 401.588914,29.1503906 401.588914,29.1503906 C401.588914,29.1503906 405.748032,29.1503906 405.748047,40.7402344 L12.3769531,39.7226562 C12.3769527,29.1503906 2.73561519,29.0722656 3.50390625,29.1503906 Z M3.50390625,29.1503906" id="Path 5" fill-opacity="0.990923713" fill="#F7C2A5" transform="translate(204.604180, 34.940018) scale(1, -1) translate(-204.604180, -34.940018) "></path>
        </g>
        <g id="Group3" transform="translate(107.000000, 274.000000)">
            <path d="M5.5943163,0.241857457 C-0.377013571,6.20211213 0.212473811,25.3528846 0.212473883,32.9533786 C-0.409421028,34.008459 28.7008675,33.2683696 28.7008675,33.2683696" id="Path 5" stroke="#979797" fill="#D8D8D8"></path>
            <path d="M0.166121457,32.2802274 C0.166121457,32.2802274 1.094595,33.0404201 1.72100732,32.5363548 C2.0134695,32.3010145 2.3632056,32.0497845 2.54153415,31.4879281 C3.45386404,28.6134679 3.51040419,22.401272 3.51040384,16.7551143 C3.51040431,16.7551143 20.3500738,16.7551143 20.3500738,16.7551143 L20.6528858,32.9122163 L1.52252385,32.9122169" id="Path 6" stroke="#979797" fill-opacity="0.990923713" fill="#F7C2A5"></path>
            <path d="M10.8150768,36.8322763 C10.8150768,36.8322763 7.2677721,37.072944 7.26777277,19 C7.2677721,19.0000001 18.9316598,19 18.9316598,19" id="Path 7" stroke="#979797" fill="#D8D8D8"></path>
            <path d="M5,0 C5,0 13.7402344,14.7441406 10.2617188,37.2207031 L409.949219,37.2207031 C409.949219,5.921875 404,0 404,0 L5,0 Z M5,0" id="Rectangle 2" stroke="#979797" fill-opacity="0.990923713" fill="#F7C2A5"></path>
            <path d="M13,28 L408,28" id="Line" stroke="#D70014" stroke-width="2" stroke-linecap="square" stroke-dasharray="4"></path>
        </g>
    </g>
</svg>