<?xml version="1.0" encoding="UTF-8" standalone="no"?>
<svg width="618px" height="200px" viewBox="0 0 618 200" version="1.1" xmlns="http://www.w3.org/2000/svg" xmlns:xlink="http://www.w3.org/1999/xlink" xmlns:sketch="http://www.bohemiancoding.com/sketch/ns">
    <title>ceinture_origami</title>
    <description>Created with Sketch (http://www.bohemiancoding.com/sketch)</description>
    <defs></defs>
    <g id="Page 1" stroke="none" stroke-width="1" fill="none" fill-rule="evenodd">
        <path d="M27,30 L27,134 L584,134 L584,30 L27,30 Z M27,30" id="Rectangle 1" fill="#D5FEFF"></path>
        <path d="M26.167767,148 L583.655644,148" id="Line" stroke="#4A4A4A" stroke-width="2" stroke-linecap="square" fill="#4A4A4A"></path>
        <path id="Line decoration-1" d="M26.967767,148 C30.7477672,146.95 33.9877673,146.05 37.7677675,145 C37.7677675,147.1 37.7677675,148.9 37.7677675,151 C33.9877673,149.95 30.7477672,149.05 26.967767,148 C26.967767,148 26.967767,148 26.967767,148 Z M26.967767,148" stroke="#4A4A4A" stroke-width="2" stroke-linecap="square" fill="#4A4A4A"></path>
        <path id="Line decoration-2" d="M583.16779,148 C579.387789,146.95 576.147789,146.05 572.367789,145 C572.367789,147.1 572.367789,148.9 572.367789,151 C576.147789,149.95 579.387789,149.05 583.16779,148 C583.16779,148 583.16779,148 583.16779,148 Z M583.16779,148" stroke="#4A4A4A" stroke-width="2" stroke-linecap="square" fill="#4A4A4A"></path>
        <text id="votre tour de taille" fill="#000000" font-family="Roboto" font-size="14" font-weight="260" x="239" y="174.463867">
            <tspan>votre tour de taille</tspan>
        </text>
        <text id="14 cm" fill="#000000" transform="translate(10.326770, 81.769005) rotate(-92.000000) translate(-10.326770, -81.769005) " font-family="Roboto" font-size="14" font-weight="260" x="-9.17323011" y="88.2328725">
            <tspan>14 cm</tspan>
        </text>
        <path d="M26,81 L185,133" id="Line" stroke="#979797" stroke-linecap="square" stroke-dasharray="2,2" opacity="0.75"></path>
        <path d="M424.775254,29.2787193 L584.058965,81.0459254" id="Line copy" stroke="#979797" stroke-linecap="square" stroke-dasharray="2,2" opacity="0.75"></path>
        <path d="M19.5,30 L19.5,134" id="Line" stroke="#4A4A4A" stroke-linecap="square" fill="#4A4A4A"></path>
        <path id="Line decoration-1" d="M19.5,30.8 C20.55,34.58 21.45,37.8200001 22.5,41.6000001 C20.4,41.6 18.6,41.6 16.5,41.5999999 C17.55,37.8199999 18.45,34.58 19.5,30.8 C19.5,30.8 19.5,30.8 19.5,30.8 Z M19.5,30.8" stroke="#4A4A4A" stroke-linecap="square" fill="#4A4A4A"></path>
        <path id="Line decoration-2" d="M19.5,134 C20.55,130.22 21.45,126.98 22.5,123.2 C20.4,123.2 18.6,123.2 16.5,123.2 C17.55,126.98 18.45,130.22 19.5,134 C19.5,134 19.5,134 19.5,134 Z M19.5,134" stroke="#4A4A4A" stroke-linecap="square" fill="#4A4A4A"></path>
        <path d="M424.377045,20.5 L583.660756,20.5" id="Line" stroke="#4A4A4A" stroke-linecap="square" fill="#4A4A4A"></path>
        <path id="Line decoration-1" d="M425.177045,20.5 C428.957045,19.45 432.197045,18.55 435.977045,17.5 C435.977045,19.6 435.977045,21.4 435.977045,23.5 C432.197045,22.45 428.957045,21.55 425.177045,20.5 C425.177045,20.5 425.177045,20.5 425.177045,20.5 Z M425.177045,20.5" stroke="#4A4A4A" stroke-linecap="square" fill="#4A4A4A"></path>
        <path id="Line decoration-2" d="M583.377049,20.5 C579.597049,19.45 576.357049,18.55 572.577049,17.5 C572.577049,19.6 572.577049,21.4 572.577049,23.5 C576.357049,22.45 579.597049,21.55 583.377049,20.5 C583.377049,20.5 583.377049,20.5 583.377049,20.5 Z M583.377049,20.5" stroke="#4A4A4A" stroke-linecap="square" fill="#4A4A4A"></path>
        <path d="M26,140.5 L185,140.5" id="Line copy" stroke="#4A4A4A" stroke-linecap="square" fill="#4A4A4A"></path>
        <path id="Line copy decoration-1" d="M26.8,140.5 C30.58,139.45 33.82,138.55 37.6,137.5 C37.6,139.6 37.6,141.4 37.6,143.5 C33.82,142.45 30.58,141.55 26.8,140.5 C26.8,140.5 26.8,140.5 26.8,140.5 Z M26.8,140.5" stroke="#4A4A4A" stroke-linecap="square" fill="#4A4A4A"></path>
        <path id="Line copy decoration-2" d="M185,140.5 C181.22,139.45 177.98,138.55 174.2,137.5 C174.2,139.6 174.2,141.4 174.2,143.5 C177.98,142.45 181.22,141.55 185,140.5 C185,140.5 185,140.5 185,140.5 Z M185,140.5" stroke="#4A4A4A" stroke-linecap="square" fill="#4A4A4A"></path>
        <text id="20 cm" fill="#000000" font-family="Roboto" font-size="14" font-weight="260" x="81" y="133.463867">
            <tspan>20 cm</tspan>
        </text>
        <text id="20 cm" fill="#000000" font-family="Roboto" font-size="14" font-weight="260" x="485" y="18.4638672">
            <tspan>20 cm</tspan>
        </text>
        <path d="M591.5,30 L591.5,82" id="Line" stroke="#4A4A4A" stroke-linecap="square" fill="#4A4A4A"></path>
        <path id="Line decoration-1" d="M591.5,30.8 C592.55,34.58 593.45,37.8200001 594.5,41.6000001 C592.4,41.6 590.6,41.6 588.5,41.5999999 C589.55,37.8199999 590.45,34.58 591.5,30.8 C591.5,30.8 591.5,30.8 591.5,30.8 Z M591.5,30.8" stroke="#4A4A4A" stroke-linecap="square" fill="#4A4A4A"></path>
        <path id="Line decoration-2" d="M591.5,82 C592.55,78.22 593.45,74.9800001 594.5,71.2000001 C592.4,71.2 590.6,71.2 588.5,71.1999999 C589.55,74.9799999 590.45,78.22 591.5,82 C591.5,82 591.5,82 591.5,82 Z M591.5,82" stroke="#4A4A4A" stroke-linecap="square" fill="#4A4A4A"></path>
        <path d="M591.5,81 L591.5,133" id="Line" stroke="#4A4A4A" stroke-linecap="square" fill="#4A4A4A"></path>
        <path id="Line decoration-1" d="M591.5,81.8 C592.55,85.58 593.45,88.8200001 594.5,92.6000001 C592.4,92.6 590.6,92.6 588.5,92.5999999 C589.55,88.8199999 590.45,85.58 591.5,81.8 C591.5,81.8 591.5,81.8 591.5,81.8 Z M591.5,81.8" stroke="#4A4A4A" stroke-linecap="square" fill="#4A4A4A"></path>
        <path id="Line decoration-2" d="M591.5,133 C592.55,129.22 593.45,125.98 594.5,122.2 C592.4,122.2 590.6,122.2 588.5,122.2 C589.55,125.98 590.45,129.22 591.5,133 C591.5,133 591.5,133 591.5,133 Z M591.5,133" stroke="#4A4A4A" stroke-linecap="square" fill="#4A4A4A"></path>
        <text id="7 cm" fill="#000000" transform="translate(607.500000, 55.500000) rotate(-270.000000) translate(-607.500000, -55.500000) " font-family="Roboto" font-size="14" font-weight="260" x="588" y="64.4638672">
            <tspan>7 cm</tspan>
        </text>
        <text id="7 cm" fill="#000000" transform="translate(607.500000, 116.500000) rotate(-270.000000) translate(-607.500000, -116.500000) " font-family="Roboto" font-size="14" font-weight="260" x="585" y="125.463867">
            <tspan>7 cm</tspan>
        </text>
        <path d="M251.666664,41 L251.666664,126" id="Line" stroke="#D70014" stroke-linecap="square" fill="#D70014"></path>
        <path id="Line decoration-1" d="M251.666664,126 C252.716664,122.22 253.616664,118.98 254.666664,115.2 C252.566664,115.2 250.766664,115.2 248.666664,115.2 C249.716664,118.98 250.616664,122.22 251.666664,126 C251.666664,126 251.666664,126 251.666664,126 Z M251.666664,126" stroke="#D70014" stroke-linecap="square" fill="#D70014"></path>
        <path id="Line decoration-2" d="M251.666664,41.8 C252.716664,45.58 253.616664,48.8200001 254.666664,52.6000001 C252.566664,52.6 250.766664,52.6 248.666664,52.5999999 C249.716664,48.8199999 250.616664,45.58 251.666664,41.8 C251.666664,41.8 251.666664,41.8 251.666664,41.8 Z M251.666664,41.8" stroke="#D70014" stroke-linecap="square" fill="#D70014"></path>
        <text id="droit fil" fill="#D70014" transform="translate(267.500000, 83.000000) rotate(-270.000000) translate(-267.500000, -83.000000) " font-family="Roboto" font-size="14" font-weight="260" x="243.5" y="91.9638672">
            <tspan>droit fil</tspan>
        </text>
    </g>
</svg>