<?xml version="1.0" encoding="UTF-8" standalone="no"?>
<svg width="512px" height="365px" viewBox="0 0 512 365" version="1.1" xmlns="http://www.w3.org/2000/svg" xmlns:xlink="http://www.w3.org/1999/xlink" xmlns:sketch="http://www.bohemiancoding.com/sketch/ns">
    <title>ceinture_origami-3</title>
    <description>Created with Sketch (http://www.bohemiancoding.com/sketch)</description>
    <defs></defs>
    <g id="Page 1" stroke="none" stroke-width="1" fill="none" fill-rule="evenodd">
        <path d="M290.235876,203.142467 C302.329883,193.002854 310.514408,177.996233 310.514408,177.996233 C310.514408,177.996233 296.576868,178.352363 278.865319,191.853089 C261.15377,205.353815 257.399719,221.691893 257.399719,221.691893 C257.399719,221.691893 275.564634,215.442832 290.235876,203.142467 Z M290.235876,203.142467" id="Path 2" stroke="#979797" fill="#EEF4F5"></path>
        <path d="M290.235876,203.142467 C302.329883,193.002854 310.514408,177.996233 310.514408,177.996233 C310.514408,177.996233 308.315291,178.052424 304.554055,178.966323 C304.554054,178.966323 295.418592,191.706095 284.742424,199.844063 C273.357693,208.522137 259.301879,216.311617 259.301879,216.311617 C257.878744,219.607121 257.399719,221.691893 257.399719,221.691893 C257.399719,221.691893 275.564634,215.442832 290.235876,203.142467 Z M290.235876,203.142467" id="Path 2" stroke="#979797" fill="#D5FEFF"></path>
        <path d="M320.5,228.5 L289.5,204.5" id="Line" stroke="#FF5B00" stroke-width="5" stroke-linecap="round" fill-opacity="0.990923713" fill="#F7C2A5"></path>
        <path id="Line decoration-1" d="M289.661774,204.625244 C292.007928,207.769519 294.018917,210.464612 296.365071,213.608886 C297.650635,211.948367 298.752546,210.525064 300.03811,208.864544 C296.406392,207.380789 293.293492,206.108999 289.661774,204.625244 C289.661774,204.625244 289.661774,204.625244 289.661774,204.625244 Z M289.661774,204.625244" stroke="#FF5B00" stroke-width="5" stroke-linecap="round" fill-opacity="0.990923713" fill="#F7C2A5"></path>
        <path d="M21.6517306,170.445746 L256.454744,221.914182 C256.454744,221.914182 263.777291,204.17096 277.08949,193.10933 C290.666165,181.827937 310.232491,177.228136 310.232491,177.228136 L217.495763,114.230444 L123.442255,100.465111" id="Rectangle 1" stroke="#979797" fill="#D5FEFF"></path>
        <g id="Group" transform="translate(388.831036, 177.691893) rotate(-323.000000) translate(-388.831036, -177.691893) translate(343.331036, 89.191893)">
            <path d="M31.9541016,162.137695 L29.1269531,176.117188 C29.1269531,176.117188 44.1798859,177.896017 62.7960968,171.631369 C81.9777374,161.646017 84.7425608,140.931485 84.7425613,134.548672 C84.7425613,128.16586 85.0152283,124.873056 78.5818062,109.33812 C78.5818062,109.33812 82.6699219,143.499023 65.8369141,152.935547 C47.8730469,164.251953 31.9541016,162.137695 31.9541016,162.137695 Z M31.9541016,162.137695" id="Path 4" fill="#709D9E"></path>
            <path d="M7.44402044,77.2384691 C7.44402044,77.2384691 1.00245588,65.4351179 0.512641358,52.8908345 C0.319889912,47.9544223 2.81722108,40.6933018 3.96931484,39.1688041 C30.3679039,5.62597839 78.5559251,-2.26423515 88.5253214,0.926266759 C88.5253214,0.926266751 90.3061823,15.8901589 90.3061839,15.8901585 C65.2345194,19.7882264 42.3804125,25.7611611 22.2667915,40.6933001 C7.02497041,52.9849141 4.10925949,59.0209592 7.44402044,77.2384691 Z M7.44402044,77.2384691" id="Path 6" fill="#709D9E"></path>
            <path d="M76.4827728,138.06414 C77.1991348,136.487457 80.2773437,127.92157 80.2773437,116.049805 C80.2773432,104.17804 65.5318389,94.8157686 47.8730469,88.2861328 C10.5976562,74.5029297 12.7047535,73.0686927 1.87369865,62.1829506 C5.39713611,88.3792395 6.42187202,97.5673802 43.3496094,106.808594 C80.277347,116.049806 75.492218,137.061951 76.4827728,138.06414 Z M76.4827728,138.06414" id="Path 5" fill="#AAD8D9"></path>
        </g>
    </g>
</svg>