<?xml version="1.0" encoding="UTF-8" standalone="no"?>
<svg width="512px" height="365px" viewBox="0 0 512 365" version="1.1" xmlns="http://www.w3.org/2000/svg" xmlns:xlink="http://www.w3.org/1999/xlink" xmlns:sketch="http://www.bohemiancoding.com/sketch/ns">
    <title>jupe-plis</title>
    <description>Created with Sketch (http://www.bohemiancoding.com/sketch)</description>
    <defs></defs>
    <g id="Page 1" stroke="none" stroke-width="1" fill="none" fill-rule="evenodd">
        <g id="background" transform="translate(15.000000, 50.000000)">
            <path d="M451.864136,265 C459.671158,265 466,260.456184 466,254.844737 L466,10.1552633 C466,4.54666624 459.672886,-1.22691305e-14 451.864136,0 L19.3834493,0 L5,0 L5.24758538,254.844737 L5.24758536,263.414734 L451.864136,265 Z M451.864136,265" id="Rectangle 2" fill="#A1B8B8" transform="translate(235.500000, 132.500000) scale(-1, 1) translate(-235.500000, -132.500000) "></path>
            <path d="M455.928681,10.4179487 C455.928686,9.34794167 456.056977,8.96924435 455.92866,8.2304667 C455.425981,5.33633015 454.059941,4.35144811 454.888542,5.41902581 C455.92866,6.75910385 445.458449,8.90896445 442.016558,8.90907436 L1.08068937e-10,8.92319032 C-3.69805003e-08,8.92319032 9.48470989e-06,270 9.48470989e-06,270 L455.860802,269.354346 C455.860802,269.354346 455.884475,264.702542 455.92866,259.192432 L455.860822,18.8803556 C455.871955,17.491991 455.928658,15.6796529 455.928681,10.4179487 Z M455.928681,10.4179487" id="Rectangle 1" fill="#D5FEFF" transform="translate(230.500000, 137.500000) scale(-1, 1) translate(-230.500000, -137.500000) "></path>
        </g>
        <g id="laize" transform="translate(24.000000, 6.000000)">
            <path d="M234.683496,22.737854 C364.124903,22.737854 469.057884,19.4029991 469.057884,15.2892467 C469.057884,11.1754942 364.124903,7.84063933 234.683496,7.84063933 C105.242089,7.84063933 0.309107276,11.1754942 0.309107276,15.2892467 C0.309107276,19.4029991 105.242089,22.737854 234.683496,22.737854 Z M234.683496,22.737854" id="Oval 1" stroke="#979797" stroke-width="2" transform="translate(234.683496, 15.289247) scale(-1, 1) translate(-234.683496, -15.289247) "></path>
            <path d="M205.819655,0 L205.819655,16.4653426 L278.941385,16.4653426 L278.941385,0 L205.819655,0 Z M205.819655,0" id="Rectangle 4" fill="#FFFFFF"></path>
            <text id="laize ou largeur" fill="#000000" font-family="Helvetica" font-size="8.50059032" font-weight="normal" x="209.668167" y="9.28465425">
                <tspan>laize ou largeur</tspan>
            </text>
            <path d="M433,8.62470326 L433,23.521918 L478.833183,23.521918 L478.833183,8.62470326 L433,8.62470326 Z M433,8.62470326" id="Rectangle 5" fill="#FFFFFF" transform="translate(455.916592, 16.073311) scale(-1, -1) translate(-455.916592, -16.073311) "></path>
            <path d="M433.166817,22.0733106 C434.547529,22.0733106 435.666817,20.9540226 435.666817,19.5733106 C435.666817,18.1925987 434.547529,17.0733106 433.166817,17.0733106 C431.786105,17.0733106 430.666817,18.1925987 430.666817,19.5733106 C430.666817,20.9540226 431.786105,22.0733106 433.166817,22.0733106 Z M433.166817,22.0733106" id="Oval 2" fill="#9B9B9B" transform="translate(433.166817, 19.573311) scale(-1, -1) translate(-433.166817, -19.573311) "></path>
            <path d="M433.166817,13.6247033 C434.547529,13.6247033 435.666817,12.5054152 435.666817,11.1247033 C435.666817,9.74399132 434.547529,8.62470326 433.166817,8.62470326 C431.786105,8.62470326 430.666817,9.74399132 430.666817,11.1247033 C430.666817,12.5054152 431.786105,13.6247033 433.166817,13.6247033 Z M433.166817,13.6247033" id="Oval 2" fill="#9B9B9B" transform="translate(433.166817, 11.124703) scale(-1, -1) translate(-433.166817, -11.124703) "></path>
        </g>
        <g id="epingle" transform="translate(440.500000, 234.000000) rotate(-90.000000) translate(-440.500000, -234.000000) translate(438.000000, 219.000000)">
            <path d="M2.5,3.5 L2.5,11.479988 M2.5,19.7104521 L2.5,29.5" id="Line" stroke="#BCB5B5" stroke-linecap="round"></path>
            <path d="M2.5,5 C3.88071194,5 5,3.88071194 5,2.5 C5,1.11928806 3.88071194,0 2.5,0 C1.11928806,0 0,1.11928806 0,2.5 C0,3.88071194 1.11928806,5 2.5,5 Z M2.5,5" id="Oval 1" fill="#EF3C4D"></path>
        </g>
        <g id="epingle" transform="translate(441.500000, 275.000000) rotate(-90.000000) translate(-441.500000, -275.000000) translate(439.000000, 260.000000)">
            <path d="M2.5,3.5 L2.5,11.479988 M2.5,19.7104521 L2.5,29.5" id="Line" stroke="#BCB5B5" stroke-linecap="round"></path>
            <path d="M2.5,5 C3.88071194,5 5,3.88071194 5,2.5 C5,1.11928806 3.88071194,0 2.5,0 C1.11928806,0 0,1.11928806 0,2.5 C0,3.88071194 1.11928806,5 2.5,5 Z M2.5,5" id="Oval 1" fill="#EF3C4D"></path>
        </g>
        <g id="epingle" transform="translate(441.500000, 193.000000) rotate(-90.000000) translate(-441.500000, -193.000000) translate(439.000000, 178.000000)">
            <path d="M2.5,3.5 L2.5,11.479988 M2.5,19.7104521 L2.5,29.5" id="Line" stroke="#BCB5B5" stroke-linecap="round"></path>
            <path d="M2.5,5 C3.88071194,5 5,3.88071194 5,2.5 C5,1.11928806 3.88071194,0 2.5,0 C1.11928806,0 0,1.11928806 0,2.5 C0,3.88071194 1.11928806,5 2.5,5 Z M2.5,5" id="Oval 1" fill="#EF3C4D"></path>
        </g>
        <g id="epingle" transform="translate(440.500000, 152.000000) rotate(-90.000000) translate(-440.500000, -152.000000) translate(438.000000, 137.000000)">
            <path d="M2.5,3.5 L2.5,11.479988 M2.5,19.7104521 L2.5,29.5" id="Line" stroke="#BCB5B5" stroke-linecap="round"></path>
            <path d="M2.5,5 C3.88071194,5 5,3.88071194 5,2.5 C5,1.11928806 3.88071194,0 2.5,0 C1.11928806,0 0,1.11928806 0,2.5 C0,3.88071194 1.11928806,5 2.5,5 Z M2.5,5" id="Oval 1" fill="#EF3C4D"></path>
        </g>
        <g id="epingle" transform="translate(440.500000, 111.000000) rotate(-90.000000) translate(-440.500000, -111.000000) translate(438.000000, 96.000000)">
            <path d="M2.5,3.5 L2.5,11.479988 M2.5,19.7104521 L2.5,29.5" id="Line" stroke="#BCB5B5" stroke-linecap="round"></path>
            <path d="M2.5,5 C3.88071194,5 5,3.88071194 5,2.5 C5,1.11928806 3.88071194,0 2.5,0 C1.11928806,0 0,1.11928806 0,2.5 C0,3.88071194 1.11928806,5 2.5,5 Z M2.5,5" id="Oval 1" fill="#EF3C4D"></path>
        </g>
        <g id="epingle" transform="translate(440.500000, 70.000000) rotate(-90.000000) translate(-440.500000, -70.000000) translate(438.000000, 55.000000)">
            <path d="M2.5,3.5 L2.5,11.479988 M2.5,19.7104521 L2.5,29.5" id="Line" stroke="#BCB5B5" stroke-linecap="round"></path>
            <path d="M2.5,5 C3.88071194,5 5,3.88071194 5,2.5 C5,1.11928806 3.88071194,0 2.5,0 C1.11928806,0 0,1.11928806 0,2.5 C0,3.88071194 1.11928806,5 2.5,5 Z M2.5,5" id="Oval 1" fill="#EF3C4D"></path>
        </g>
        <path d="M442.5,59.5 L442.5,319.5" id="Line" stroke="#D70014" stroke-linecap="square" stroke-dasharray="2"></path>
        <path d="M469.5,72 C470.328427,72 471,71.3284272 471,70.5 C471,69.6715728 470.328427,69 469.5,69 C468.671573,69 468,69.6715728 468,70.5 C468,71.3284272 468.671573,72 469.5,72 Z M469.5,72" id="Oval 10" stroke="#DFDFDF" fill="#FFFFFF"></path>
        <path d="M469.5,95 C470.328427,95 471,94.3284272 471,93.5 C471,92.6715728 470.328427,92 469.5,92 C468.671573,92 468,92.6715728 468,93.5 C468,94.3284272 468.671573,95 469.5,95 Z M469.5,95" id="Oval 10" stroke="#DFDFDF" fill="#FFFFFF"></path>
        <path d="M469.5,119 C470.328427,119 471,118.328427 471,117.5 C471,116.671573 470.328427,116 469.5,116 C468.671573,116 468,116.671573 468,117.5 C468,118.328427 468.671573,119 469.5,119 Z M469.5,119" id="Oval 10" stroke="#DFDFDF" fill="#FFFFFF"></path>
        <path d="M469.5,142 C470.328427,142 471,141.328427 471,140.5 C471,139.671573 470.328427,139 469.5,139 C468.671573,139 468,139.671573 468,140.5 C468,141.328427 468.671573,142 469.5,142 Z M469.5,142" id="Oval 10" stroke="#DFDFDF" fill="#FFFFFF"></path>
        <path d="M469.5,166 C470.328427,166 471,165.328427 471,164.5 C471,163.671573 470.328427,163 469.5,163 C468.671573,163 468,163.671573 468,164.5 C468,165.328427 468.671573,166 469.5,166 Z M469.5,166" id="Oval 10" stroke="#DFDFDF" fill="#FFFFFF"></path>
        <path d="M469.5,190 C470.328427,190 471,189.328427 471,188.5 C471,187.671573 470.328427,187 469.5,187 C468.671573,187 468,187.671573 468,188.5 C468,189.328427 468.671573,190 469.5,190 Z M469.5,190" id="Oval 10" stroke="#DFDFDF" fill="#FFFFFF"></path>
        <path d="M469.5,214 C470.328427,214 471,213.328427 471,212.5 C471,211.671573 470.328427,211 469.5,211 C468.671573,211 468,211.671573 468,212.5 C468,213.328427 468.671573,214 469.5,214 Z M469.5,214" id="Oval 10" stroke="#DFDFDF" fill="#FFFFFF"></path>
        <path d="M469.5,237 C470.328427,237 471,236.328427 471,235.5 C471,234.671573 470.328427,234 469.5,234 C468.671573,234 468,234.671573 468,235.5 C468,236.328427 468.671573,237 469.5,237 Z M469.5,237" id="Oval 10" stroke="#DFDFDF" fill="#FFFFFF"></path>
        <path d="M469.5,261 C470.328427,261 471,260.328427 471,259.5 C471,258.671573 470.328427,258 469.5,258 C468.671573,258 468,258.671573 468,259.5 C468,260.328427 468.671573,261 469.5,261 Z M469.5,261" id="Oval 10" stroke="#DFDFDF" fill="#FFFFFF"></path>
        <path d="M469.5,284 C470.328427,284 471,283.328427 471,282.5 C471,281.671573 470.328427,281 469.5,281 C468.671573,281 468,281.671573 468,282.5 C468,283.328427 468.671573,284 469.5,284 Z M469.5,284" id="Oval 10" stroke="#DFDFDF" fill="#FFFFFF"></path>
        <path d="M469.5,308 C470.328427,308 471,307.328427 471,306.5 C471,305.671573 470.328427,305 469.5,305 C468.671573,305 468,305.671573 468,306.5 C468,307.328427 468.671573,308 469.5,308 Z M469.5,308" id="Oval 10" stroke="#DFDFDF" fill="#FFFFFF"></path>
        <path d="M463.5,84 C464.328427,84 465,83.3284272 465,82.5 C465,81.6715728 464.328427,81 463.5,81 C462.671573,81 462,81.6715728 462,82.5 C462,83.3284272 462.671573,84 463.5,84 Z M463.5,84" id="Oval 10" stroke="#DFDFDF" fill="#FFFFFF"></path>
        <path d="M463.5,107 C464.328427,107 465,106.328427 465,105.5 C465,104.671573 464.328427,104 463.5,104 C462.671573,104 462,104.671573 462,105.5 C462,106.328427 462.671573,107 463.5,107 Z M463.5,107" id="Oval 10" stroke="#DFDFDF" fill="#FFFFFF"></path>
        <path d="M463.5,131 C464.328427,131 465,130.328427 465,129.5 C465,128.671573 464.328427,128 463.5,128 C462.671573,128 462,128.671573 462,129.5 C462,130.328427 462.671573,131 463.5,131 Z M463.5,131" id="Oval 10" stroke="#DFDFDF" fill="#FFFFFF"></path>
        <path d="M463.5,154 C464.328427,154 465,153.328427 465,152.5 C465,151.671573 464.328427,151 463.5,151 C462.671573,151 462,151.671573 462,152.5 C462,153.328427 462.671573,154 463.5,154 Z M463.5,154" id="Oval 10" stroke="#DFDFDF" fill="#FFFFFF"></path>
        <path d="M463.5,178 C464.328427,178 465,177.328427 465,176.5 C465,175.671573 464.328427,175 463.5,175 C462.671573,175 462,175.671573 462,176.5 C462,177.328427 462.671573,178 463.5,178 Z M463.5,178" id="Oval 10" stroke="#DFDFDF" fill="#FFFFFF"></path>
        <path d="M463.5,202 C464.328427,202 465,201.328427 465,200.5 C465,199.671573 464.328427,199 463.5,199 C462.671573,199 462,199.671573 462,200.5 C462,201.328427 462.671573,202 463.5,202 Z M463.5,202" id="Oval 10" stroke="#DFDFDF" fill="#FFFFFF"></path>
        <path d="M463.5,226 C464.328427,226 465,225.328427 465,224.5 C465,223.671573 464.328427,223 463.5,223 C462.671573,223 462,223.671573 462,224.5 C462,225.328427 462.671573,226 463.5,226 Z M463.5,226" id="Oval 10" stroke="#DFDFDF" fill="#FFFFFF"></path>
        <path d="M463.5,249 C464.328427,249 465,248.328427 465,247.5 C465,246.671573 464.328427,246 463.5,246 C462.671573,246 462,246.671573 462,247.5 C462,248.328427 462.671573,249 463.5,249 Z M463.5,249" id="Oval 10" stroke="#DFDFDF" fill="#FFFFFF"></path>
        <path d="M463.5,273 C464.328427,273 465,272.328427 465,271.5 C465,270.671573 464.328427,270 463.5,270 C462.671573,270 462,270.671573 462,271.5 C462,272.328427 462.671573,273 463.5,273 Z M463.5,273" id="Oval 10" stroke="#DFDFDF" fill="#FFFFFF"></path>
        <path d="M463.5,296 C464.328427,296 465,295.328427 465,294.5 C465,293.671573 464.328427,293 463.5,293 C462.671573,293 462,293.671573 462,294.5 C462,295.328427 462.671573,296 463.5,296 Z M463.5,296" id="Oval 10" stroke="#DFDFDF" fill="#FFFFFF"></path>
    </g>
</svg>