<?xml version="1.0" encoding="UTF-8" standalone="no"?>
<svg width="618px" height="684px" viewBox="0 0 618 684" version="1.1" xmlns="http://www.w3.org/2000/svg" xmlns:xlink="http://www.w3.org/1999/xlink" xmlns:sketch="http://www.bohemiancoding.com/sketch/ns">
    <title>robe Y - 2</title>
    <description>Created with Sketch (http://www.bohemiancoding.com/sketch)</description>
    <defs></defs>
    <g id="Page 1" stroke="none" stroke-width="1" fill="none" fill-rule="evenodd">
        <g id="Group" transform="translate(14.000000, 53.000000)">
            <path d="M0,22.6098314 L0,567.390169 C0,579.877234 8.11569125,590 18.1318537,590 L572.868146,590 C582.882093,590 591,579.883579 591,567.390169 L591,22.6098314 C591,10.1227663 582.884309,0 572.868146,0 L18.1318537,0 C8.11790741,0 0,10.1164207 0,22.6098314 Z M0,22.6098314" id="Rectangle 1" fill="#D5FEFF"></path>
            <path d="M576.358998,576.746616 L12.576973,577.394548 C8.29259982,577.399467 5.99041119,578.97003 7.45618392,580.903447 C8.94442562,582.83644 13.574945,584.407321 17.7874401,584.412121 L572.465707,585.043599 C576.680557,585.048394 581.024897,583.197382 582.145416,580.903452 C583.238157,578.604866 580.640285,576.741691 576.358998,576.746616 Z M576.358998,576.746616" id="Path" fill="#A1B8B8"></path>
            <path d="M576.883669,3.85552132 L13.1016434,4.50345324 C8.81727021,4.50837287 6.51508159,6.07893578 7.98085431,8.01235297 C9.46909602,9.94534514 14.0996154,11.516227 18.3121105,11.5210265 L572.990378,12.1525045 C577.205228,12.1572992 581.549567,10.3062872 582.670086,8.01235746 C583.762828,5.71377191 581.164955,3.85059677 576.883669,3.85552132 Z M576.883669,3.85552132" id="Path" fill="#A1B8B8" transform="translate(295.229374, 8.004013) rotate(-180.000000) translate(-295.229374, -8.004013) "></path>
            <path d="M291,7.42934704 L291,578.500026" id="Line" stroke="#A1B8B8" stroke-width="5" stroke-linecap="square"></path>
            <path d="M291.276407,52.3629006 C291.276407,52.3628998 283.40901,42.986414 275.347357,38.869123 C268.825566,35.9679539 266.148491,39.4104972 257.698304,37.7542702 C260.393715,30.9594105 260.867966,29.8055105 260.309162,24.2780052 C258.828073,16.7597029 257.698304,11.1529468 257.698304,11.1529468 L291.276407,10.9716242 L291.276407,52.3629006 Z M291.276407,52.3629006" id="Path 2" fill="#A1B8B8"></path>
            <path d="M226.585649,12.9438228 C226.585649,12.9438228 245.999745,12.943698 253.58156,12.9438228 C257.560725,12.9438878 264.582851,12.9438228 273.589902,21.5555803 C285.920851,33.3453587 287.769633,39.4943924 287.769631,49.8146551 C287.769622,64.7746156 286.460126,90.8871954 286.460126,90.8871954" id="Path 3" stroke="#D5FEFF" stroke-width="3"></path>
        </g>
        <g id="Group" transform="translate(22.000000, 7.000000)">
            <path d="M287.229374,31.7182596 C445.719755,31.7182596 574.20158,27.493619 574.20158,22.28226 C574.20158,17.0709011 445.719755,12.8462604 287.229374,12.8462604 C128.738993,12.8462604 0.257167941,17.0709011 0.257167941,22.28226 C0.257167941,27.493619 128.738993,31.7182596 287.229374,31.7182596 Z M287.229374,31.7182596" id="Oval 1" stroke="#979797" stroke-width="2"></path>
            <path d="M234.086373,3 L234.086373,24.3335643 L325.413605,24.3335643 L325.413605,3 L234.086373,3 Z M234.086373,3" id="Rectangle 4" fill="#FFFFFF"></path>
            <text id="laize 150 cm" fill="#000000" font-family="Roboto" font-size="14" font-weight="normal" x="241.562414" y="18.9388672">
                <tspan>laize 150 cm</tspan>
            </text>
            <path d="M278.175381,28.4361728 L278.175381,35.8208682 L288.41033,35.8208682 L288.41033,28.4361728 L278.175381,28.4361728 Z M278.175381,28.4361728" id="Rectangle 5" fill="#FFFFFF"></path>
            <path d="M287.623026,34.1798247 C288.927474,34.1798247 289.984937,33.0777446 289.984937,31.7182596 C289.984937,30.3587747 288.927474,29.2566945 287.623026,29.2566945 C286.318578,29.2566945 285.261115,30.3587747 285.261115,31.7182596 C285.261115,33.0777446 286.318578,34.1798247 287.623026,34.1798247 Z M287.623026,34.1798247" id="Oval 2" fill="#9B9B9B"></path>
            <path d="M278.175381,34.1798247 C279.479829,34.1798247 280.537292,33.0777446 280.537292,31.7182596 C280.537292,30.3587747 279.479829,29.2566945 278.175381,29.2566945 C276.870934,29.2566945 275.81347,30.3587747 275.81347,31.7182596 C275.81347,33.0777446 276.870934,34.1798247 278.175381,34.1798247 Z M278.175381,34.1798247" id="Oval 2" fill="#9B9B9B"></path>
        </g>
        <g id="DEVANT" transform="translate(328.000000, 68.000000)">
            <path d="M276.617187,482.312867 L276.617187,49.1725047 L0.585270715,49.1725047 L80.7916441,482.312867 L276.617187,482.312867 Z M276.617187,482.312867" id="Rectangle 8" stroke="#000000"></path>
            <text fill="#7C7979" font-family="Roboto" font-size="20" font-weight="normal" x="88.1060796" y="186.113711">
                <tspan>DEVANT</tspan>
            </text>
            <path d="M236.5,482.312867 L236.5,49.1725047" id="Line" stroke="#4A4A4A" stroke-linecap="square" fill="#4A4A4A"></path>
            <path id="Line decoration-1" d="M236.5,49.312855 C235.45,53.0928552 234.55,56.3328553 233.5,60.1128554 C235.6,60.1128553 237.4,60.1128553 239.5,60.1128552 C238.45,56.3328551 237.55,53.0928551 236.5,49.312855 C236.5,49.312855 236.5,49.312855 236.5,49.312855 Z M236.5,49.312855" stroke="#4A4A4A" stroke-linecap="square" fill="#4A4A4A"></path>
            <path id="Line decoration-2" d="M236.5,481.512867 C235.45,477.732867 234.55,474.492866 233.5,470.712866 C235.6,470.712866 237.4,470.712866 239.5,470.712866 C238.45,474.492866 237.55,477.732866 236.5,481.512867 C236.5,481.512867 236.5,481.512867 236.5,481.512867 Z M236.5,481.512867" stroke="#4A4A4A" stroke-linecap="square" fill="#4A4A4A"></path>
            <text id="55 cm" fill="#000000" transform="translate(255.022857, 258.628636) rotate(-270.000000) translate(-255.022857, -258.628636) " font-family="Roboto" font-size="14" font-weight="normal" x="226.394222" y="267.592503">
                <tspan>55 cm</tspan>
            </text>
            <path d="M79.0572013,485.5 L276.617188,485.5" id="Line" stroke="#4A4A4A" stroke-linecap="square" fill="#4A4A4A"></path>
            <path id="Line decoration-1" d="M276.057205,485.5 C272.277205,484.45 269.037205,483.55 265.257205,482.5 C265.257205,484.6 265.257205,486.4 265.257205,488.5 C269.037205,487.45 272.277205,486.55 276.057205,485.5 C276.057205,485.5 276.057205,485.5 276.057205,485.5 Z M276.057205,485.5" stroke="#4A4A4A" stroke-linecap="square" fill="#4A4A4A"></path>
            <path id="Line decoration-2" d="M79.8572014,485.5 C83.6372014,484.45 86.8772015,483.55 90.6572016,482.5 C90.6572016,484.6 90.6572016,486.4 90.6572016,488.5 C86.8772015,487.45 83.6372014,486.55 79.8572014,485.5 C79.8572014,485.5 79.8572014,485.5 79.8572014,485.5 Z M79.8572014,485.5" stroke="#4A4A4A" stroke-linecap="square" fill="#4A4A4A"></path>
            <path d="M0.979602024,42.5 L274.645531,42.5" id="Line" stroke="#4A4A4A" stroke-linecap="square" fill="#4A4A4A"></path>
            <path id="Line decoration-1" d="M273.979607,42.5 C270.199607,41.45 266.959607,40.55 263.179607,39.5 C263.179607,41.6 263.179607,43.4 263.179607,45.5 C266.959607,44.45 270.199607,43.55 273.979607,42.5 C273.979607,42.5 273.979607,42.5 273.979607,42.5 Z M273.979607,42.5" stroke="#4A4A4A" stroke-linecap="square" fill="#4A4A4A"></path>
            <path id="Line decoration-2" d="M1.77960204,42.5 C5.55960211,41.45 8.79960216,40.55 12.5796022,39.5 C12.5796022,41.6 12.5796022,43.4 12.5796022,45.5 C8.79960216,44.45 5.55960211,43.55 1.77960204,42.5 C1.77960204,42.5 1.77960204,42.5 1.77960204,42.5 Z M1.77960204,42.5" stroke="#4A4A4A" stroke-linecap="square" fill="#4A4A4A"></path>
            <text id="Tailles : 40 = 26 cm" fill="#000000" font-family="Roboto" font-size="14" font-weight="normal" x="66" y="543.463867">
                <tspan>Tailles : 40 = 26 cm / 42 = 27 cm</tspan>
            </text>
            <text id="Tailles bas" fill="#000000" font-family="Roboto" font-size="14" font-weight="normal" x="65.6457143" y="520.775264">
                <tspan>Tailles : 36 = 24 cm / 38 = 25 cm</tspan>
            </text>
            <text id="Tailles :  40 = 37 c" fill="#000000" font-family="Roboto" font-size="14" font-weight="normal" y="38.4638672">
                <tspan x="24">Tailles : </tspan>
                <tspan x="75.1328125"> 40 = 37 cm / 42 = 38 cm</tspan>
            </text>
            <text id="Tailles haut" fill="#000000" font-family="Roboto" font-size="14" font-weight="normal" x="23.0806952" y="18.4638672">
                <tspan>Tailles : 36 = 35 cm / 38 = 36 cm</tspan>
            </text>
            <text id="27 cm" fill="#000000" transform="translate(43.835600, 160.090630) rotate(-282.000000) translate(-43.835600, -160.090630) " font-family="Roboto" font-size="14" font-weight="normal" x="20.324864" y="169.054497">
                <tspan>27 cm</tspan>
            </text>
            <path d="M39.6240704,259.836226 L49.8766844,257.473642" id="Line" stroke="#000000" stroke-linecap="square"></path>
            <path d="M6.10590905,49.6286793 L43.5673821,257.473638" id="Line" stroke="#000000" stroke-linecap="square" fill="#000000"></path>
            <path id="Line decoration-1" d="M43.5329785,257.282759 C43.8958338,253.376452 44.2068525,250.028189 44.5697078,246.121881 C42.5030085,246.494378 40.7315519,246.813661 38.6648526,247.186158 C40.3686967,250.719969 41.8291345,253.748949 43.5329785,257.282759 C43.5329785,257.282759 43.5329785,257.282759 43.5329785,257.282759 Z M43.5329785,257.282759" stroke="#000000" stroke-linecap="square" fill="#000000"></path>
            <path id="Line decoration-2" d="M6.24781263,50.4159934 C7.9516567,53.9498037 9.41209447,56.9787841 11.1159385,60.5125944 C9.04923925,60.8850914 7.2777827,61.2043746 5.21108341,61.5768716 C5.57393864,57.6705642 5.8849574,54.3223007 6.24781263,50.4159934 C6.24781263,50.4159934 6.24781263,50.4159934 6.24781263,50.4159934 Z M6.24781263,50.4159934" stroke="#000000" stroke-linecap="square" fill="#000000"></path>
            <path d="M276.999998,49.0887721 C276.999997,51.1868743 277,49.9387001 277,55.8537258 C277,61.7687514 239.823382,96.9364725 209.190735,100.620798 C208.962784,100.648215 204.336643,100.620798 201.799156,100.620798" id="Path 14" stroke="#4A4A4A" stroke-dasharray="2,1" transform="translate(239.399578, 74.860878) scale(-1, 1) translate(-239.399578, -74.860878) "></path>
        </g>
        <g id="DOS" transform="translate(15.000000, 66.000000)">
            <path d="M0,52.3679804 L276.031917,52.3679804 L195.825543,484.796241 L0,484.796241 L0,52.3679804 Z M0,52.3679804" id="Rectangle 8" stroke="#000000"></path>
            <text fill="#7C7979" font-family="Roboto" font-size="20" font-weight="normal" x="58" y="157.446613">
                <tspan>DOS</tspan>
            </text>
            <path d="M77.333329,230.596694 L77.333329,312.927342" id="Line" stroke="#D70014" stroke-width="2" stroke-linecap="square"></path>
            <path id="Line decoration-1" d="M77.333329,312.596691 C78.383329,308.816692 79.283329,305.576692 80.333329,301.796692 C78.233329,301.796692 76.433329,301.796692 74.333329,301.796692 C75.383329,305.576692 76.283329,308.816692 77.333329,312.596691 C77.333329,312.596691 77.333329,312.596691 77.333329,312.596691 Z M77.333329,312.596691" stroke="#D70014" stroke-width="2" stroke-linecap="square"></path>
            <path id="Line decoration-2" d="M77.333329,231.396694 C78.383329,235.176694 79.283329,238.416694 80.333329,242.196694 C78.233329,242.196694 76.433329,242.196694 74.333329,242.196694 C75.383329,238.416694 76.283329,235.176694 77.333329,231.396694 C77.333329,231.396694 77.333329,231.396694 77.333329,231.396694 Z M77.333329,231.396694" stroke="#D70014" stroke-width="2" stroke-linecap="square"></path>
            <text id="droit fil" fill="#D70014" transform="translate(94.000000, 277.847561) rotate(-270.000000) translate(-94.000000, -277.847561) " font-family="Roboto" font-size="14" font-weight="normal" x="60.4362409" y="286.811429">
                <tspan>droit fil</tspan>
            </text>
            <path d="M0,491.5 L197.165655,491.5" id="Line" stroke="#4A4A4A" stroke-linecap="square" fill="#4A4A4A"></path>
            <path id="Line decoration-1" d="M197.000005,491.5 C193.220005,490.45 189.980005,489.55 186.200005,488.5 C186.200005,490.6 186.200005,492.4 186.200005,494.5 C189.980005,493.45 193.220005,492.55 197.000005,491.5 C197.000005,491.5 197.000005,491.5 197.000005,491.5 Z M197.000005,491.5" stroke="#4A4A4A" stroke-linecap="square" fill="#4A4A4A"></path>
            <path id="Line decoration-2" d="M0.800000022,491.5 C4.58000013,490.45 7.82000022,489.55 11.6000003,488.5 C11.6000003,490.6 11.6000003,492.4 11.6000003,494.5 C7.82000022,493.45 4.58000013,492.55 0.800000022,491.5 C0.800000022,491.5 0.800000022,491.5 0.800000022,491.5 Z M0.800000022,491.5" stroke="#4A4A4A" stroke-linecap="square" fill="#4A4A4A"></path>
            <text id="Tailles : 40 = 26 cm" fill="#000000" font-family="Roboto" font-size="14" font-weight="normal" y="533.463867">
                <tspan x="11">Tailles : </tspan>
                <tspan x="62.1328125">40 = 26 cm / 42 = 27 cm</tspan>
            </text>
            <text id="Tailles : 36 = 24 cm" fill="#000000" font-family="Roboto" font-size="14" font-weight="normal" x="11.3085714" y="513.260108">
                <tspan>Tailles : 36 = 24 cm / 38 = 25 cm</tspan>
            </text>
            <path d="M156.5,484.796241 L156.5,52.3679804" id="Line" stroke="#4A4A4A" stroke-linecap="square" fill="#4A4A4A"></path>
            <path id="Line decoration-1" d="M156.5,52.7962336 C155.45,56.5762337 154.55,59.8162338 153.5,63.5962339 C155.6,63.5962338 157.4,63.5962337 159.5,63.5962336 C158.45,59.8162336 157.55,56.5762336 156.5,52.7962336 C156.5,52.7962336 156.5,52.7962336 156.5,52.7962336 Z M156.5,52.7962336" stroke="#4A4A4A" stroke-linecap="square" fill="#4A4A4A"></path>
            <path id="Line decoration-2" d="M156.5,483.996241 C155.45,480.216241 154.55,476.976241 153.5,473.196241 C155.6,473.19624 157.4,473.19624 159.5,473.19624 C158.45,476.97624 157.55,480.216241 156.5,483.996241 C156.5,483.996241 156.5,483.996241 156.5,483.996241 Z M156.5,483.996241" stroke="#4A4A4A" stroke-linecap="square" fill="#4A4A4A"></path>
            <text id="55 cm" fill="#000000" transform="translate(177.182857, 272.400567) rotate(-270.000000) translate(-177.182857, -272.400567) " font-family="Roboto" font-size="14" font-weight="normal" x="154.900534" y="281.364434">
                <tspan>55 cm</tspan>
            </text>
            <text id="27 cm" fill="#000000" transform="translate(236.047497, 152.556432) rotate(-78.000000) translate(-236.047497, -152.556432) " font-family="Roboto" font-size="14" font-weight="normal" x="212.199709" y="161.5203">
                <tspan>27 cm</tspan>
            </text>
            <path d="M225.163178,261.899128 L236.204455,264.257828" id="Line" stroke="#000000" stroke-linecap="square"></path>
            <path d="M270.511278,54.3958715 L230.683816,262.685357" id="Line" stroke="#000000" stroke-linecap="square" fill="#000000"></path>
            <path id="Line decoration-1" d="M230.695657,262.62343 C232.436893,259.107893 233.929381,256.094576 235.670617,252.57904 C233.607985,252.18464 231.840015,251.846582 229.777384,251.452182 C230.09878,255.362119 230.374262,258.713493 230.695657,262.62343 C230.695657,262.62343 230.695657,262.62343 230.695657,262.62343 Z M230.695657,262.62343" stroke="#000000" stroke-linecap="square" fill="#000000"></path>
            <path id="Line decoration-2" d="M270.361031,55.1816359 C270.682427,59.0915725 270.957909,62.4429468 271.279304,66.3528835 C269.216673,65.9584835 267.448703,65.6204263 265.386071,65.2260263 C267.127307,61.7104897 268.619795,58.6971725 270.361031,55.1816359 C270.361031,55.1816359 270.361031,55.1816359 270.361031,55.1816359 Z M270.361031,55.1816359" stroke="#000000" stroke-linecap="square" fill="#000000"></path>
            <path d="M1.18299393,44.5 L274.848923,44.5" id="Line" stroke="#4A4A4A" stroke-linecap="square" fill="#4A4A4A"></path>
            <path id="Line decoration-1" d="M274.182999,44.5 C270.402999,43.45 267.162999,42.55 263.382999,41.5 C263.382999,43.6 263.382999,45.4 263.382999,47.5 C267.162999,46.45 270.402999,45.55 274.182999,44.5 C274.182999,44.5 274.182999,44.5 274.182999,44.5 Z M274.182999,44.5" stroke="#4A4A4A" stroke-linecap="square" fill="#4A4A4A"></path>
            <path id="Line decoration-2" d="M1.98299394,44.5 C5.76299401,43.45 9.00299407,42.55 12.7829941,41.5 C12.7829941,43.6 12.7829941,45.4 12.7829941,47.5 C9.00299407,46.45 5.76299401,45.55 1.98299394,44.5 C1.98299394,44.5 1.98299394,44.5 1.98299394,44.5 Z M1.98299394,44.5" stroke="#4A4A4A" stroke-linecap="square" fill="#4A4A4A"></path>
            <text id="Tailles : 40 = 37 cm" fill="#000000" font-family="Roboto" font-size="14" font-weight="normal" x="37" y="39.4638672">
                <tspan>Tailles : 40 = 37 cm / 42 = 38 cm</tspan>
            </text>
            <text id="Tailles haut" fill="#000000" font-family="Roboto" font-size="14" font-weight="normal" x="38" y="18.6280882">
                <tspan>Tailles : 36 = 35 cm / 38 = 36 cm </tspan>
            </text>
            <path d="M74.1117406,74.5176907 C57.3599393,75.1835776 -1.69290055e-07,62.3018517 2.16511485e-07,59.6920157 L2.16511485e-07,59.479031 C-2.70639409e-07,56.2395155 2.16511485e-07,55.5978068 2.16511485e-07,53" id="Path 14" stroke="#4A4A4A" stroke-dasharray="2,1" transform="translate(37.055870, 63.771302) scale(-1, 1) translate(-37.055870, -63.771302) "></path>
        </g>
    </g>
</svg>