<?xml version="1.0" encoding="UTF-8" standalone="no"?>
<svg width="618px" height="500px" viewBox="0 0 618 500" version="1.1" xmlns="http://www.w3.org/2000/svg" xmlns:xlink="http://www.w3.org/1999/xlink" xmlns:sketch="http://www.bohemiancoding.com/sketch/ns">
    <title>robe Y -1</title>
    <description>Created with Sketch (http://www.bohemiancoding.com/sketch)</description>
    <defs></defs>
    <g id="Page 1" stroke="none" stroke-width="1" fill="none" fill-rule="evenodd">
        <path d="M45.139843,416.130852 L585.343164,416.130852 C595.094765,416.130852 603,409.89493 603,402.193794 L602.999986,66.385045 C602.999986,56.8108024 595.919236,52.4455137 585.343164,52.4455137 L45.139843,52.4455137 L27.1737527,52.4455137 L27.4830073,402.193794 C27.4830073,409.891019 35.3860838,416.130852 45.139843,416.130852 Z M45.139843,416.130852" id="Rectangle 2" fill="#A1B8B8"></path>
        <path d="M603.532137,445.034982 L603.443999,81.4520745 C603.458464,79.3515352 603.532135,76.6095456 603.532165,68.6487903 C603.532171,67.0299109 603.698881,66.8036483 603.532165,65.6858999 C603.001403,62.2631723 602.126239,61.141391 602.12622,61.141391 C602.12622,65.0859078 589.928729,66.3652494 585.456857,66.3652494 L13.8784396,66.3652494 C13.8784396,66.3652494 11.1674186,460.053581 11.1674186,460.053581 C11.1674186,460.053581 570.456185,460.433903 585.456881,460.053581 C600.457576,459.673258 603.47473,453.371439 603.532137,445.034982 Z M603.532137,445.034982" id="Rectangle 1" fill="#D5FEFF"></path>
        <g id="laize" transform="translate(13.000000, 5.000000)">
            <path d="M298,31 C460.371724,31 592,26.970563 592,22 C592,17.029437 460.371724,13 298,13 C135.628276,13 4,17.029437 4,22 C4,26.970563 135.628276,31 298,31 Z M298,31" id="Oval 1" stroke="#979797" stroke-width="2"></path>
            <path d="M237,4 L237,25 L376,25 L376,4 L237,4 Z M237,4" id="Rectangle 4" fill="#FFFFFF"></path>
            <text id="laize 110 à 150 cm" fill="#000000" font-family="Roboto" font-size="14" font-weight="normal" x="250" y="18.4638672">
                <tspan>laize 110 à 150 cm</tspan>
            </text>
            <path d="M0,13 L0,34 L36,34 L36,13 L0,13 Z M0,13" id="Rectangle 5" fill="#FFFFFF"></path>
            <path d="M36.5,21 C37.8807119,21 39,19.8807119 39,18.5 C39,17.1192881 37.8807119,16 36.5,16 C35.1192881,16 34,17.1192881 34,18.5 C34,19.8807119 35.1192881,21 36.5,21 Z M36.5,21" id="Oval 2" fill="#9B9B9B"></path>
            <path d="M36.5,30 C37.8807119,30 39,28.8807119 39,27.5 C39,26.1192881 37.8807119,25 36.5,25 C35.1192881,25 34,26.1192881 34,27.5 C34,28.8807119 35.1192881,30 36.5,30 Z M36.5,30" id="Oval 2" fill="#9B9B9B"></path>
        </g>
        <path d="M112,102 L112,418 L507,418 L507,102 L112,102 Z M112,102" id="Rectangle 3" stroke="#000000"></path>
        <path d="M524.5,421.337421 L524.5,105.370049" id="Line" stroke="#4A4A4A" stroke-linecap="square" fill="#4A4A4A"></path>
        <path id="Line decoration-1" d="M524.5,106.337425 C523.45,110.117425 522.55,113.357425 521.5,117.137425 C523.6,117.137425 525.4,117.137425 527.5,117.137425 C526.45,113.357425 525.55,110.117425 524.5,106.337425 C524.5,106.337425 524.5,106.337425 524.5,106.337425 Z M524.5,106.337425" stroke="#4A4A4A" stroke-linecap="square" fill="#4A4A4A"></path>
        <path id="Line decoration-2" d="M524.5,420.537421 C523.45,416.757421 522.55,413.517421 521.5,409.737421 C523.6,409.737421 525.4,409.737421 527.5,409.737421 C526.45,413.517421 525.55,416.757421 524.5,420.537421 C524.5,420.537421 524.5,420.537421 524.5,420.537421 Z M524.5,420.537421" stroke="#4A4A4A" stroke-linecap="square" fill="#4A4A4A"></path>
        <path d="M112.395,124.5 L506.605,124.5" id="Line" stroke="#4A4A4A" stroke-linecap="square" fill="#4A4A4A"></path>
        <path id="Line decoration-1" d="M506.395009,124.5 C502.615008,123.45 499.375008,122.55 495.595008,121.5 C495.595008,123.6 495.595008,125.4 495.595008,127.5 C499.375008,126.45 502.615008,125.55 506.395009,124.5 C506.395009,124.5 506.395009,124.5 506.395009,124.5 Z M506.395009,124.5" stroke="#4A4A4A" stroke-linecap="square" fill="#4A4A4A"></path>
        <path id="Line decoration-2" d="M113.195,124.5 C116.975,123.45 120.215,122.55 123.995,121.5 C123.995,123.6 123.995,125.4 123.995,127.5 C120.215,126.45 116.975,125.55 113.195,124.5 C113.195,124.5 113.195,124.5 113.195,124.5 Z M113.195,124.5" stroke="#4A4A4A" stroke-linecap="square" fill="#4A4A4A"></path>
        <text id="40 cm" fill="#000000" transform="translate(539.500000, 261.000000) rotate(-270.000000) translate(-539.500000, -261.000000) " font-family="Roboto" font-size="14" font-weight="normal" x="520" y="267.463867">
            <tspan>40 cm</tspan>
        </text>
        <text id="Tailles : 36 = 48 cm" fill="#000000" font-family="Roboto" font-size="14" font-weight="normal" x="125" y="156.463867">
            <tspan>Tailles : 36 = 48 cm / 38 = 50 cm / 40 = 52 cm / 42 = 54 cm</tspan>
        </text>
        <path d="M169.333329,273.622674 L169.333329,356.339222" id="Line" stroke="#D70014" stroke-width="2" stroke-linecap="square"></path>
        <path id="Line decoration-1" d="M169.333329,355.622677 C170.383329,351.842677 171.283329,348.602677 172.333329,344.822676 C170.233329,344.822676 168.433329,344.822676 166.333329,344.822676 C167.383329,348.602676 168.283329,351.842676 169.333329,355.622677 C169.333329,355.622677 169.333329,355.622677 169.333329,355.622677 Z M169.333329,355.622677" stroke="#D70014" stroke-width="2" stroke-linecap="square"></path>
        <path id="Line decoration-2" d="M169.333329,274.422674 C170.383329,278.202675 171.283329,281.442675 172.333329,285.222675 C170.233329,285.222675 168.433329,285.222675 166.333329,285.222675 C167.383329,281.442674 168.283329,278.202674 169.333329,274.422674 C169.333329,274.422674 169.333329,274.422674 169.333329,274.422674 Z M169.333329,274.422674" stroke="#D70014" stroke-width="2" stroke-linecap="square"></path>
        <text id="droit fil" fill="#D70014" transform="translate(188.000000, 323.500000) rotate(-270.000000) translate(-188.000000, -323.500000) " font-family="Roboto" font-size="14" font-weight="normal" x="159" y="332.463867">
            <tspan>droit fil</tspan>
        </text>
    </g>
</svg>