<?xml version="1.0" encoding="UTF-8" standalone="no"?>
<svg width="618px" height="600px" viewBox="0 0 618 600" version="1.1" xmlns="http://www.w3.org/2000/svg" xmlns:xlink="http://www.w3.org/1999/xlink" xmlns:sketch="http://www.bohemiancoding.com/sketch/ns">
    <title>tablier 10-12</title>
    <description>Created with Sketch (http://www.bohemiancoding.com/sketch)</description>
    <defs></defs>
    <g id="Page 1" stroke="none" stroke-width="1" fill="none" fill-rule="evenodd">
        <g id="Group" transform="translate(26.000000, 52.000000)">
            <path d="M22.9956652,0 C10.29551,0 0,10.2942336 0,22.9915205 L0,496.008479 C0,508.706346 10.2947914,519 22.9956652,519 L544.004335,519 C556.70449,519 567,508.705766 567,496.008479 L567,22.9915205 C567,10.2936544 556.705209,0 544.004335,0 L22.9956652,0 Z M22.9956652,0" id="Rectangle 1" fill="#D5FEFF"></path>
            <path d="M552.688259,508.28509 C552.688259,508.28509 13.7823786,508.656132 11.7314285,508.907199 C9.68047911,509.158266 8.6190531,510.67498 9.4506075,512.276257 C10.2821601,513.877535 12.6889967,515.640482 16.7309454,515.64509 L548.952592,516.251401 C552.9968,516.256004 555.515511,514.478764 556.590664,512.276257 C557.639165,510.069281 556.796214,508.280362 552.688259,508.28509 Z M552.688259,508.28509" id="Path" fill="#A1B8B8"></path>
            <path d="M553.137528,3.98822337 L12.1806972,4.61033222 C8.06978046,4.61505579 7.14332464,6.12302445 8.5497543,7.97938609 C9.97774328,9.83533965 13.1382654,11.3436148 17.1802141,11.348223 L549.40186,11.9545337 C553.446069,11.9591373 556.476542,10.1818922 557.551695,7.97938609 C558.600196,5.77240972 557.245483,3.98349508 553.137528,3.98822337 Z M553.137528,3.98822337" id="Path" fill="#A1B8B8" transform="translate(282.913327, 7.971378) rotate(-180.000000) translate(-282.913327, -7.971378) "></path>
            <path d="M280.5,7.37817638 L280.5,512.621824" id="Line" stroke="#A1B8B8" stroke-width="5" stroke-linecap="square" fill="#A1B8B8"></path>
            <path d="M232.428773,11.1801261 L279.141236,10.8207231 L279.141236,50.5705068 C279.141236,50.5705062 268.19644,45.4246032 256.981403,45.4246032 C247.908558,46.0295851 241.125027,50.5705062 232.428773,51.0778605 C232.428773,51.0778605 227.891005,47.197652 232.428773,33.6998692 C236.966542,20.2020865 232.428773,11.1801261 232.428773,11.1801261 Z M232.428773,11.1801261" id="Path 2" fill="#A1B8B8"></path>
            <path d="M217.538733,13.283861 C217.538733,13.283861 224.919167,12.7143143 232.194026,12.7143143 C232.48943,12.7143143 249.94845,12.7143143 262.177027,20.9828538 C275.464313,29.9672552 276.51783,40.373664 276.517829,50.2826169 C276.517819,64.6463543 276.517829,80.4098883 276.517829,80.4098883" id="Path 3" stroke="#D5FEFF" stroke-width="3"></path>
        </g>
        <g id="Group" transform="translate(32.000000, 10.000000)">
            <path d="M275.5,32 C427.654456,32 551,28.1944206 551,23.5 C551,18.8055794 427.654456,15 275.5,15 C123.345544,15 0,18.8055794 0,23.5 C0,28.1944206 123.345544,32 275.5,32 Z M275.5,32" id="Oval 1" stroke="#979797" stroke-width="2"></path>
            <path d="M223,0 L223,21 L313,21 L313,0 L223,0 Z M223,0" id="background" fill="#FFFFFF"></path>
            <text id="laize 150 cm" fill="#000000" font-family="Helvetica" font-size="14" font-weight="normal" x="230" y="19">
                <tspan>laize 150 cm</tspan>
            </text>
            <path d="M267,30 L267,37 L277,37 L277,30 L267,30 Z M267,30" id="Rectangle 5" fill="#FFFFFF"></path>
            <path d="M275.5,35 C276.880712,35 278,33.8807119 278,32.5 C278,31.1192881 276.880712,30 275.5,30 C274.119288,30 273,31.1192881 273,32.5 C273,33.8807119 274.119288,35 275.5,35 Z M275.5,35" id="Oval 2" fill="#9B9B9B"></path>
            <path d="M266.5,35 C267.880712,35 269,33.8807119 269,32.5 C269,31.1192881 267.880712,30 266.5,30 C265.119288,30 264,31.1192881 264,32.5 C264,33.8807119 265.119288,35 266.5,35 Z M266.5,35" id="Oval 2" fill="#9B9B9B"></path>
        </g>
        <g id="Group" transform="translate(7.000000, 120.000000)">
            <path d="M25,0 L25,322 L289,322 L289,0 L25,0 Z M25,0" id="Rectangle 6" stroke="#000000"></path>
            <path d="M99,144 L99,227 L212,227 L212,144 L99,144 Z M99,144" id="Rectangle 7" stroke="#000000"></path>
            <path d="M24,218.5 L97.6262626,218.5" id="Line" stroke="#4A4A4A" stroke-linecap="square" fill="#4A4A4A"></path>
            <path id="Line decoration-1" d="M97.0000037,218.5 C93.2200036,217.45 89.9800034,216.55 86.2000032,215.5 C86.2000032,217.6 86.2000032,219.4 86.2000032,221.5 C89.9800034,220.45 93.2200036,219.55 97.0000037,218.5 C97.0000037,218.5 97.0000037,218.5 97.0000037,218.5 Z M97.0000037,218.5" stroke="#4A4A4A" stroke-linecap="square" fill="#4A4A4A"></path>
            <path id="Line decoration-2" d="M24.8,218.5 C28.5800002,217.45 31.8200004,216.55 35.6000006,215.5 C35.6000006,217.6 35.6000006,219.4 35.6000006,221.5 C31.8200004,220.45 28.5800002,219.55 24.8,218.5 C24.8,218.5 24.8,218.5 24.8,218.5 Z M24.8,218.5" stroke="#4A4A4A" stroke-linecap="square" fill="#4A4A4A"></path>
            <path d="M160.5,143 L160.5,0.378306878" id="Line" stroke="#4A4A4A" stroke-linecap="square" fill="#4A4A4A"></path>
            <path id="Line decoration-1" d="M160.5,0.99999574 C159.45,4.7799959 158.55,8.01999604 157.5,11.7999962 C159.6,11.7999961 161.4,11.799996 163.5,11.7999959 C162.45,8.01999587 161.55,4.77999581 160.5,0.99999574 C160.5,0.99999574 160.5,0.99999574 160.5,0.99999574 Z M160.5,0.99999574" stroke="#4A4A4A" stroke-linecap="square" fill="#4A4A4A"></path>
            <path id="Line decoration-2" d="M160.5,142.2 C159.45,138.42 158.55,135.18 157.5,131.4 C159.6,131.4 161.4,131.4 163.5,131.4 C162.45,135.18 161.55,138.42 160.5,142.2 C160.5,142.2 160.5,142.2 160.5,142.2 Z M160.5,142.2" stroke="#4A4A4A" stroke-linecap="square" fill="#4A4A4A"></path>
            <path d="M160.5,321.623016 L160.5,227" id="Line" stroke="#4A4A4A" stroke-linecap="square" fill="#4A4A4A"></path>
            <path id="Line decoration-1" d="M160.5,227.623016 C159.45,231.403016 158.55,234.643016 157.5,238.423016 C159.6,238.423016 161.4,238.423016 163.5,238.423016 C162.45,234.643016 161.55,231.403016 160.5,227.623016 C160.5,227.623016 160.5,227.623016 160.5,227.623016 Z M160.5,227.623016" stroke="#4A4A4A" stroke-linecap="square" fill="#4A4A4A"></path>
            <path id="Line decoration-2" d="M160.5,320.823016 C159.45,317.043016 158.55,313.803016 157.5,310.023016 C159.6,310.023016 161.4,310.023016 163.5,310.023016 C162.45,313.803016 161.55,317.043016 160.5,320.823016 C160.5,320.823016 160.5,320.823016 160.5,320.823016 Z M160.5,320.823016" stroke="#4A4A4A" stroke-linecap="square" fill="#4A4A4A"></path>
            <path d="M129.5,226.621622 L129.5,143" id="Line" stroke="#4A4A4A" stroke-linecap="square" fill="#4A4A4A"></path>
            <path id="Line decoration-1" d="M129.5,143.62162 C128.45,147.40162 127.55,150.64162 126.5,154.421621 C128.6,154.42162 130.4,154.42162 132.5,154.42162 C131.45,150.64162 130.55,147.40162 129.5,143.62162 C129.5,143.62162 129.5,143.62162 129.5,143.62162 Z M129.5,143.62162" stroke="#4A4A4A" stroke-linecap="square" fill="#4A4A4A"></path>
            <path id="Line decoration-2" d="M129.5,225.821622 C128.45,222.041622 127.55,218.801622 126.5,215.021622 C128.6,215.021621 130.4,215.021621 132.5,215.021621 C131.45,218.801621 130.55,222.041621 129.5,225.821622 C129.5,225.821622 129.5,225.821622 129.5,225.821622 Z M129.5,225.821622" stroke="#4A4A4A" stroke-linecap="square" fill="#4A4A4A"></path>
            <path d="M17.5,327.62212 L17.5,0.377880184" id="Line" stroke="#4A4A4A" stroke-linecap="square" fill="#4A4A4A"></path>
            <path id="Line decoration-1" d="M17.5,0.622112368 C16.45,4.4021125 15.55,7.64211261 14.5,11.4221127 C16.6,11.4221127 18.4,11.4221126 20.5,11.4221125 C19.45,7.64211244 18.55,4.40211241 17.5,0.622112368 C17.5,0.622112368 17.5,0.622112368 17.5,0.622112368 Z M17.5,0.622112368" stroke="#4A4A4A" stroke-linecap="square" fill="#4A4A4A"></path>
            <path id="Line decoration-2" d="M17.5,326.82212 C16.45,323.04212 15.55,319.80212 14.5,316.02212 C16.6,316.02212 18.4,316.02212 20.5,316.022119 C19.45,319.80212 18.55,323.04212 17.5,326.82212 C17.5,326.82212 17.5,326.82212 17.5,326.82212 Z M17.5,326.82212" stroke="#4A4A4A" stroke-linecap="square" fill="#4A4A4A"></path>
            <path d="M212,219.5 L285.622449,219.5" id="Line" stroke="#4A4A4A" stroke-linecap="square" fill="#4A4A4A"></path>
            <path id="Line decoration-1" d="M284.999997,219.5 C281.219997,218.45 277.979997,217.55 274.199998,216.5 C274.199998,218.6 274.199998,220.4 274.199998,222.5 C277.979997,221.45 281.219997,220.55 284.999997,219.5 C284.999997,219.5 284.999997,219.5 284.999997,219.5 Z M284.999997,219.5" stroke="#4A4A4A" stroke-linecap="square" fill="#4A4A4A"></path>
            <path id="Line decoration-2" d="M212.8,219.5 C216.58,218.45 219.82,217.55 223.6,216.5 C223.6,218.6 223.6,220.4 223.6,222.5 C219.82,221.45 216.58,220.55 212.8,219.5 C212.8,219.5 212.8,219.5 212.8,219.5 Z M212.8,219.5" stroke="#4A4A4A" stroke-linecap="square" fill="#4A4A4A"></path>
            <path d="M23.8022909,326.5 L289.46954,326.5" id="Line" stroke="#4A4A4A" stroke-linecap="square" fill="#4A4A4A"></path>
            <path id="Line decoration-1" d="M288.802304,326.5 C285.022304,325.45 281.782304,324.55 278.002303,323.5 C278.002303,325.6 278.002303,327.4 278.002303,329.5 C281.782304,328.45 285.022304,327.55 288.802304,326.5 C288.802304,326.5 288.802304,326.5 288.802304,326.5 Z M288.802304,326.5" stroke="#4A4A4A" stroke-linecap="square" fill="#4A4A4A"></path>
            <path id="Line decoration-2" d="M24.6022909,326.5 C28.3822911,325.45 31.6222913,324.55 35.4022915,323.5 C35.4022915,325.6 35.4022915,327.4 35.4022915,329.5 C31.6222913,328.45 28.3822911,327.55 24.6022909,326.5 C24.6022909,326.5 24.6022909,326.5 24.6022909,326.5 Z M24.6022909,326.5" stroke="#4A4A4A" stroke-linecap="square" fill="#4A4A4A"></path>
            <text id="10 cm" fill="#4A4A4A" font-family="Helvetica Neue" font-size="14" font-weight="normal" x="41" y="216.918032">
                <tspan>10 cm</tspan>
            </text>
            <text id="10 cm" fill="#4A4A4A" font-family="Helvetica Neue" font-size="14" font-weight="normal" x="228" y="216.918032">
                <tspan>10 cm</tspan>
            </text>
            <text id="35 cm" fill="#4A4A4A" font-family="Helvetica Neue" font-size="14" font-weight="normal" x="142" y="346.418032">
                <tspan>35 cm</tspan>
            </text>
            <text id="42,5 cm" fill="#4A4A4A" transform="translate(8.500000, 184.000000) rotate(-270.000000) translate(-8.500000, -184.000000) " font-family="Helvetica Neue" font-size="14" font-weight="normal" x="-22" y="191.918032">
                <tspan>42,5 cm</tspan>
            </text>
            <text id="19 cm" fill="#4A4A4A" transform="translate(171.500000, 74.000000) rotate(-270.000000) translate(-171.500000, -74.000000) " font-family="Helvetica Neue" font-size="14" font-weight="normal" x="147" y="81.9180323">
                <tspan>19 cm</tspan>
            </text>
            <text id="12,5 cm" fill="#4A4A4A" transform="translate(171.000000, 271.000000) rotate(-270.000000) translate(-171.000000, -271.000000) " font-family="Helvetica Neue" font-size="14" font-weight="normal" x="142" y="278.918032">
                <tspan>12,5 cm</tspan>
            </text>
            <text id="11 cm" fill="#4A4A4A" transform="translate(139.500000, 184.000000) rotate(-270.000000) translate(-139.500000, -184.000000) " font-family="Helvetica Neue" font-size="14" font-weight="normal" x="116" y="191.918032">
                <tspan>11 cm</tspan>
            </text>
        </g>
        <g id="Group" transform="translate(319.000000, 74.000000)">
            <g>
                <path d="M1,1 L1,213 L273,213 L273,1 L1,1 Z M1,1" id="Rectangle 8" stroke="#000000"></path>
                <path d="M279.50025,213 L279.49975,1" id="Line" stroke="#4A4A4A" stroke-linecap="square" fill="#4A4A4A"></path>
                <path id="Line decoration-1" d="M279.49975,1 C278.449759,4.78000242 277.549766,8.0200045 276.499775,11.8000069 C278.599775,11.8000021 280.399775,11.7999979 282.499775,11.7999931 C281.449766,8.0199955 280.549759,4.77999758 279.49975,1 C279.49975,1 279.49975,1 279.49975,1 Z M279.49975,1" stroke="#4A4A4A" stroke-linecap="square" fill="#4A4A4A"></path>
                <path id="Line decoration-2" d="M279.500248,212.2 C278.450239,208.420002 277.550232,205.180005 276.500223,201.400007 C278.600223,201.400002 280.400223,201.399998 282.500223,201.399993 C281.450232,205.179995 280.550239,208.419998 279.500248,212.2 C279.500248,212.2 279.500248,212.2 279.500248,212.2 Z M279.500248,212.2" stroke="#4A4A4A" stroke-linecap="square" fill="#4A4A4A"></path>
                <text id="28 cm" fill="#4A4A4A" transform="translate(289.500000, 114.244846) rotate(-270.000000) translate(-289.500000, -114.244846) " font-family="Helvetica Neue" font-size="14" font-weight="normal" x="265.25" y="122.162879">
                    <tspan>28 cm</tspan>
                </text>
                <path d="M1,219.5 L273,219.5" id="Line" stroke="#4A4A4A" stroke-linecap="square" fill="#4A4A4A"></path>
                <path id="Line decoration-1" d="M273,219.5 C269.22,218.45 265.98,217.55 262.2,216.5 C262.2,218.6 262.2,220.4 262.2,222.5 C265.98,221.45 269.22,220.55 273,219.5 C273,219.5 273,219.5 273,219.5 Z M273,219.5" stroke="#4A4A4A" stroke-linecap="square" fill="#4A4A4A"></path>
                <path id="Line decoration-2" d="M1.8,219.5 C5.58,218.45 8.82,217.55 12.6,216.5 C12.6,218.6 12.6,220.4 12.6,222.5 C8.82,221.45 5.58,220.55 1.8,219.5 C1.8,219.5 1.8,219.5 1.8,219.5 Z M1.8,219.5" stroke="#4A4A4A" stroke-linecap="square" fill="#4A4A4A"></path>
                <text id="36 cm" fill="#4A4A4A" font-family="Helvetica Neue" font-size="14" font-weight="normal" x="115" y="237.918032">
                    <tspan>36 cm</tspan>
                </text>
                <path d="M0.521748286,0.883466463 C0.521748286,0.883466463 0.521748286,212.510335 272.613384,212.510294" id="Path 13" stroke="#979797" stroke-dasharray="2"></path>
            </g>
            <g transform="translate(0.000000, 243.000000)">
                <path d="M1,0 L1,212 L273,212 L273,0 L1,0 Z M1,0" id="Rectangle 8" stroke="#000000"></path>
                <path d="M279.50025,212 L279.49975,0" id="Line" stroke="#4A4A4A" stroke-linecap="square" fill="#4A4A4A"></path>
                <path id="Line decoration-1" d="M279.49975,0 C278.449759,3.78000242 277.549766,7.0200045 276.499775,10.8000069 C278.599775,10.8000021 280.399775,10.7999979 282.499775,10.7999931 C281.449766,7.0199955 280.549759,3.77999758 279.49975,0 C279.49975,0 279.49975,0 279.49975,0 Z M279.49975,0" stroke="#4A4A4A" stroke-linecap="square" fill="#4A4A4A"></path>
                <path id="Line decoration-2" d="M279.500248,211.2 C278.450239,207.420002 277.550232,204.180005 276.500223,200.400007 C278.600223,200.400002 280.400223,200.399998 282.500223,200.399993 C281.450232,204.179995 280.550239,207.419998 279.500248,211.2 C279.500248,211.2 279.500248,211.2 279.500248,211.2 Z M279.500248,211.2" stroke="#4A4A4A" stroke-linecap="square" fill="#4A4A4A"></path>
                <text id="28 cm" fill="#4A4A4A" transform="translate(288.500000, 102.750000) rotate(-270.000000) translate(-288.500000, -102.750000) " font-family="Helvetica Neue" font-size="14" font-weight="normal" x="264.25" y="110.668032">
                    <tspan>28 cm</tspan>
                </text>
                <path d="M1,219.5 L273,219.5" id="Line" stroke="#4A4A4A" stroke-linecap="square" fill="#4A4A4A"></path>
                <path id="Line decoration-1" d="M273,219.5 C269.22,218.45 265.98,217.55 262.2,216.5 C262.2,218.6 262.2,220.4 262.2,222.5 C265.98,221.45 269.22,220.55 273,219.5 C273,219.5 273,219.5 273,219.5 Z M273,219.5" stroke="#4A4A4A" stroke-linecap="square" fill="#4A4A4A"></path>
                <path id="Line decoration-2" d="M1.8,219.5 C5.58,218.45 8.82,217.55 12.6,216.5 C12.6,218.6 12.6,220.4 12.6,222.5 C8.82,221.45 5.58,220.55 1.8,219.5 C1.8,219.5 1.8,219.5 1.8,219.5 Z M1.8,219.5" stroke="#4A4A4A" stroke-linecap="square" fill="#4A4A4A"></path>
                <text id="36 cm" fill="#4A4A4A" font-family="Helvetica Neue" font-size="14" font-weight="normal" x="114" y="238.918032">
                    <tspan>36 cm</tspan>
                </text>
                <path d="M0.521748286,0.498507894 C0.521748286,0.498507894 0.521748286,212.125376 272.613384,212.125335" id="Path 13" stroke="#979797" stroke-dasharray="2"></path>
            </g>
        </g>
        <path d="M254.666664,167 L254.666664,248" id="Line" stroke="#D70014" stroke-linecap="square" fill="#D70014"></path>
        <path id="Line decoration-1" d="M254.666664,248 C255.716664,244.22 256.616664,240.98 257.666664,237.2 C255.566664,237.2 253.766664,237.2 251.666664,237.2 C252.716664,240.98 253.616664,244.22 254.666664,248 C254.666664,248 254.666664,248 254.666664,248 Z M254.666664,248" stroke="#D70014" stroke-linecap="square" fill="#D70014"></path>
        <path id="Line decoration-2" d="M254.666664,167.8 C255.716664,171.58 256.616664,174.82 257.666664,178.6 C255.566664,178.6 253.766664,178.6 251.666664,178.6 C252.716664,174.82 253.616664,171.58 254.666664,167.8 C254.666664,167.8 254.666664,167.8 254.666664,167.8 Z M254.666664,167.8" stroke="#D70014" stroke-linecap="square" fill="#D70014"></path>
        <text id="droit fil" fill="#D70014" transform="translate(263.500000, 211.500000) rotate(-270.000000) translate(-263.500000, -211.500000) " font-family="Helvetica" font-size="14" font-weight="normal" x="238" y="217">
            <tspan>droit fil</tspan>
        </text>
    </g>
</svg>