<?xml version="1.0" encoding="UTF-8" standalone="no"?>
<svg width="512px" height="365px" viewBox="0 0 512 365" version="1.1" xmlns="http://www.w3.org/2000/svg" xmlns:xlink="http://www.w3.org/1999/xlink" xmlns:sketch="http://www.bohemiancoding.com/sketch/ns">
    <title>tablier-couture</title>
    <description>Created with Sketch (http://www.bohemiancoding.com/sketch)</description>
    <defs></defs>
    <g id="Page 1" stroke="none" stroke-width="1" fill="none" fill-rule="evenodd">
        <g id="Group" transform="translate(140.000000, 40.000000)">
            <path d="M0,0 L0,238 L206,238 L206,0 L0,0 Z M0,0" id="Rectangle 6" fill="#84E3AB"></path>
            <path d="M45,89 L45,178 L160,178 L160,89 L45,89 Z M45,89" id="Rectangle 4" stroke="#D70014" stroke-dasharray="2"></path>
            <path d="M51,96 L51,173 L155,173 L155,96 L51,96 Z M51,96" id="Rectangle 7" stroke="#3BA365" fill="#46C479"></path>
        </g>
        <g id="epingle" transform="translate(241.000000, 114.000000)">
            <path d="M2.5,3.5 L2.5,11.479988 M2.5,19.7104521 L2.5,29.5" id="Line" stroke="#BCB5B5" stroke-linecap="round"></path>
            <path d="M2.5,5 C3.88071194,5 5,3.88071194 5,2.5 C5,1.11928806 3.88071194,0 2.5,0 C1.11928806,0 0,1.11928806 0,2.5 C0,3.88071194 1.11928806,5 2.5,5 Z M2.5,5" id="Oval 1" fill="#EF3C4D"></path>
        </g>
        <g id="epingle" transform="translate(267.000000, 114.000000)">
            <path d="M2.5,3.5 L2.5,11.479988 M2.5,19.7104521 L2.5,29.5" id="Line" stroke="#BCB5B5" stroke-linecap="round"></path>
            <path d="M2.5,5 C3.88071194,5 5,3.88071194 5,2.5 C5,1.11928806 3.88071194,0 2.5,0 C1.11928806,0 0,1.11928806 0,2.5 C0,3.88071194 1.11928806,5 2.5,5 Z M2.5,5" id="Oval 1" fill="#EF3C4D"></path>
        </g>
        <g id="epingle" transform="translate(215.000000, 115.000000)">
            <path d="M2.5,3.5 L2.5,11.479988 M2.5,19.7104521 L2.5,29.5" id="Line" stroke="#BCB5B5" stroke-linecap="round"></path>
            <path d="M2.5,5 C3.88071194,5 5,3.88071194 5,2.5 C5,1.11928806 3.88071194,0 2.5,0 C1.11928806,0 0,1.11928806 0,2.5 C0,3.88071194 1.11928806,5 2.5,5 Z M2.5,5" id="Oval 1" fill="#EF3C4D"></path>
        </g>
        <g id="epingle" transform="translate(293.000000, 114.000000)">
            <path d="M2.5,3.5 L2.5,11.479988 M2.5,19.7104521 L2.5,29.5" id="Line" stroke="#BCB5B5" stroke-linecap="round"></path>
            <path d="M2.5,5 C3.88071194,5 5,3.88071194 5,2.5 C5,1.11928806 3.88071194,0 2.5,0 C1.11928806,0 0,1.11928806 0,2.5 C0,3.88071194 1.11928806,5 2.5,5 Z M2.5,5" id="Oval 1" fill="#EF3C4D"></path>
        </g>
        <g id="epingle" transform="translate(191.500000, 218.000000) rotate(-180.000000) translate(-191.500000, -218.000000) translate(189.000000, 203.000000)">
            <path d="M2.5,3.5 L2.5,11.479988 M2.5,19.7104521 L2.5,29.5" id="Line" stroke="#BCB5B5" stroke-linecap="round"></path>
            <path d="M2.5,5 C3.88071194,5 5,3.88071194 5,2.5 C5,1.11928806 3.88071194,0 2.5,0 C1.11928806,0 0,1.11928806 0,2.5 C0,3.88071194 1.11928806,5 2.5,5 Z M2.5,5" id="Oval 1" fill="#EF3C4D"></path>
        </g>
        <g id="epingle" transform="translate(217.500000, 218.000000) rotate(-180.000000) translate(-217.500000, -218.000000) translate(215.000000, 203.000000)">
            <path d="M2.5,3.5 L2.5,11.479988 M2.5,19.7104521 L2.5,29.5" id="Line" stroke="#BCB5B5" stroke-linecap="round"></path>
            <path d="M2.5,5 C3.88071194,5 5,3.88071194 5,2.5 C5,1.11928806 3.88071194,0 2.5,0 C1.11928806,0 0,1.11928806 0,2.5 C0,3.88071194 1.11928806,5 2.5,5 Z M2.5,5" id="Oval 1" fill="#EF3C4D"></path>
        </g>
        <g id="epingle" transform="translate(246.500000, 218.000000) rotate(-180.000000) translate(-246.500000, -218.000000) translate(244.000000, 203.000000)">
            <path d="M2.5,3.5 L2.5,11.479988 M2.5,19.7104521 L2.5,29.5" id="Line" stroke="#BCB5B5" stroke-linecap="round"></path>
            <path d="M2.5,5 C3.88071194,5 5,3.88071194 5,2.5 C5,1.11928806 3.88071194,0 2.5,0 C1.11928806,0 0,1.11928806 0,2.5 C0,3.88071194 1.11928806,5 2.5,5 Z M2.5,5" id="Oval 1" fill="#EF3C4D"></path>
        </g>
        <g id="epingle" transform="translate(269.500000, 218.000000) rotate(-180.000000) translate(-269.500000, -218.000000) translate(267.000000, 203.000000)">
            <path d="M2.5,3.5 L2.5,11.479988 M2.5,19.7104521 L2.5,29.5" id="Line" stroke="#BCB5B5" stroke-linecap="round"></path>
            <path d="M2.5,5 C3.88071194,5 5,3.88071194 5,2.5 C5,1.11928806 3.88071194,0 2.5,0 C1.11928806,0 0,1.11928806 0,2.5 C0,3.88071194 1.11928806,5 2.5,5 Z M2.5,5" id="Oval 1" fill="#EF3C4D"></path>
        </g>
        <g id="epingle" transform="translate(295.500000, 218.000000) rotate(-180.000000) translate(-295.500000, -218.000000) translate(293.000000, 203.000000)">
            <path d="M2.5,3.5 L2.5,11.479988 M2.5,19.7104521 L2.5,29.5" id="Line" stroke="#BCB5B5" stroke-linecap="round"></path>
            <path d="M2.5,5 C3.88071194,5 5,3.88071194 5,2.5 C5,1.11928806 3.88071194,0 2.5,0 C1.11928806,0 0,1.11928806 0,2.5 C0,3.88071194 1.11928806,5 2.5,5 Z M2.5,5" id="Oval 1" fill="#EF3C4D"></path>
        </g>
        <g id="epingle" transform="translate(189.000000, 114.000000)">
            <path d="M2.5,3.5 L2.5,11.479988 M2.5,19.7104521 L2.5,29.5" id="Line" stroke="#BCB5B5" stroke-linecap="round"></path>
            <path d="M2.5,5 C3.88071194,5 5,3.88071194 5,2.5 C5,1.11928806 3.88071194,0 2.5,0 C1.11928806,0 0,1.11928806 0,2.5 C0,3.88071194 1.11928806,5 2.5,5 Z M2.5,5" id="Oval 1" fill="#EF3C4D"></path>
        </g>
        <g id="epingle" transform="translate(182.500000, 147.000000) rotate(-90.000000) translate(-182.500000, -147.000000) translate(180.000000, 132.000000)">
            <path d="M2.5,3.5 L2.5,11.479988 M2.5,19.7104521 L2.5,29.5" id="Line" stroke="#BCB5B5" stroke-linecap="round"></path>
            <path d="M2.5,5 C3.88071194,5 5,3.88071194 5,2.5 C5,1.11928806 3.88071194,0 2.5,0 C1.11928806,0 0,1.11928806 0,2.5 C0,3.88071194 1.11928806,5 2.5,5 Z M2.5,5" id="Oval 1" fill="#EF3C4D"></path>
        </g>
        <g id="epingle" transform="translate(182.500000, 172.000000) rotate(-90.000000) translate(-182.500000, -172.000000) translate(180.000000, 157.000000)">
            <path d="M2.5,3.5 L2.5,11.479988 M2.5,19.7104521 L2.5,29.5" id="Line" stroke="#BCB5B5" stroke-linecap="round"></path>
            <path d="M2.5,5 C3.88071194,5 5,3.88071194 5,2.5 C5,1.11928806 3.88071194,0 2.5,0 C1.11928806,0 0,1.11928806 0,2.5 C0,3.88071194 1.11928806,5 2.5,5 Z M2.5,5" id="Oval 1" fill="#EF3C4D"></path>
        </g>
        <g id="epingle" transform="translate(182.500000, 197.000000) rotate(-90.000000) translate(-182.500000, -197.000000) translate(180.000000, 182.000000)">
            <path d="M2.5,3.5 L2.5,11.479988 M2.5,19.7104521 L2.5,29.5" id="Line" stroke="#BCB5B5" stroke-linecap="round"></path>
            <path d="M2.5,5 C3.88071194,5 5,3.88071194 5,2.5 C5,1.11928806 3.88071194,0 2.5,0 C1.11928806,0 0,1.11928806 0,2.5 C0,3.88071194 1.11928806,5 2.5,5 Z M2.5,5" id="Oval 1" fill="#EF3C4D"></path>
        </g>
        <g id="epingle" transform="translate(301.500000, 197.000000) rotate(-270.000000) translate(-301.500000, -197.000000) translate(299.000000, 182.000000)">
            <path d="M2.5,3.5 L2.5,11.479988 M2.5,19.7104521 L2.5,29.5" id="Line" stroke="#BCB5B5" stroke-linecap="round"></path>
            <path d="M2.5,5 C3.88071194,5 5,3.88071194 5,2.5 C5,1.11928806 3.88071194,0 2.5,0 C1.11928806,0 0,1.11928806 0,2.5 C0,3.88071194 1.11928806,5 2.5,5 Z M2.5,5" id="Oval 1" fill="#EF3C4D"></path>
        </g>
        <g id="epingle" transform="translate(301.500000, 172.000000) rotate(-270.000000) translate(-301.500000, -172.000000) translate(299.000000, 157.000000)">
            <path d="M2.5,3.5 L2.5,11.479988 M2.5,19.7104521 L2.5,29.5" id="Line" stroke="#BCB5B5" stroke-linecap="round"></path>
            <path d="M2.5,5 C3.88071194,5 5,3.88071194 5,2.5 C5,1.11928806 3.88071194,0 2.5,0 C1.11928806,0 0,1.11928806 0,2.5 C0,3.88071194 1.11928806,5 2.5,5 Z M2.5,5" id="Oval 1" fill="#EF3C4D"></path>
        </g>
        <g id="epingle" transform="translate(301.500000, 147.000000) rotate(-270.000000) translate(-301.500000, -147.000000) translate(299.000000, 132.000000)">
            <path d="M2.5,3.5 L2.5,11.479988 M2.5,19.7104521 L2.5,29.5" id="Line" stroke="#BCB5B5" stroke-linecap="round"></path>
            <path d="M2.5,5 C3.88071194,5 5,3.88071194 5,2.5 C5,1.11928806 3.88071194,0 2.5,0 C1.11928806,0 0,1.11928806 0,2.5 C0,3.88071194 1.11928806,5 2.5,5 Z M2.5,5" id="Oval 1" fill="#EF3C4D"></path>
        </g>
    </g>
</svg>