<?xml version="1.0" encoding="UTF-8" standalone="no"?>
<svg width="622px" height="416px" viewBox="0 0 622 416" version="1.1" xmlns="http://www.w3.org/2000/svg" xmlns:xlink="http://www.w3.org/1999/xlink" xmlns:sketch="http://www.bohemiancoding.com/sketch/ns">
    <title>tablier-montage</title>
    <description>Created with Sketch (http://www.bohemiancoding.com/sketch)</description>
    <defs></defs>
    <g id="Page 1" stroke="none" stroke-width="1" fill="none" fill-rule="evenodd">
        <g id="Group" transform="translate(250.000000, 50.000000)" stroke="#9A9B9B">
            <path d="M0,0 L0,149 L129,149 L129,0 L0,0 Z M0,0" id="Rectangle 6" fill="#D5FEFF"></path>
            <path d="M32,59 L32,107 L97,107 L97,59 L32,59 Z M32,59" id="Rectangle 7" fill="#FFFFFF"></path>
        </g>
        <text id="dos" fill="#4A4A4A" font-family="Roboto" font-size="14" font-weight="normal" x="303" y="86.4638672">
            <tspan>dos</tspan>
        </text>
        <text id="devant" fill="#4A4A4A" font-family="Roboto" font-size="14" font-weight="normal" x="293" y="186.463867">
            <tspan>devant</tspan>
        </text>
        <path d="M93,198 L93,238 L536,238 L536,198 L93,198 Z M93,198" id="Rectangle 4" stroke="#979797" fill="#D5FEFF"></path>
        <path d="M315,337 C392.872154,337 456,292.228478 456,237 C456,237 174,237.000001 174,237 C174,292.228478 237.127846,337 315,337 Z M315,337" id="Oval 1" stroke="#979797" fill="#D5FEFF"></path>
        <text id="ceinture imprimée" fill="#4A4A4A" font-family="Roboto" font-size="14" font-weight="normal" x="258" y="226.463867">
            <tspan>ceinture imprimée</tspan>
        </text>
        <text id="jupe du tablier" fill="#4A4A4A" font-family="Roboto" font-size="14" font-weight="normal" x="264" y="292.463867">
            <tspan>jupe du tablier</tspan>
        </text>
    </g>
</svg>