<?xml version="1.0" encoding="UTF-8" standalone="no"?>
<svg width="621px" height="882px" viewBox="0 0 621 882" version="1.1" xmlns="http://www.w3.org/2000/svg" xmlns:xlink="http://www.w3.org/1999/xlink" xmlns:sketch="http://www.bohemiancoding.com/sketch/ns">
    <title>top_kimono</title>
    <description>Created with Sketch (http://www.bohemiancoding.com/sketch)</description>
    <defs>
        <path d="M232.491211,92.08893 L232.491211,611.67202" id="path-1"></path>
        <path d="M232.491211,93.08893 L232.491211,612.67202" id="path-2"></path>
    </defs>
    <g id="Page 1" stroke="none" stroke-width="1" fill="none" fill-rule="evenodd">
        <g id="Group" transform="translate(32.000000, 48.000000)">
            <path d="M23.0072896,0 C10.3007144,0 0,10.2987366 0,22.9988381 L0,793.001162 C0,805.703069 10.3057892,816 23.0072896,816 L532.99271,816 C545.699286,816 556,805.701263 556,793.001162 L556,22.9988381 C556,10.2969306 545.694211,0 532.99271,0 L23.0072896,0 Z M23.0072896,0" id="Rectangle 1" fill="#D5FEFF"></path>
            <path d="M543.322443,805.041093 L12.7270838,805.651685 C8.69490746,805.656321 6.52823568,807.136373 7.90772664,808.958369 C9.30836395,810.779964 13.6663108,812.260317 17.6308401,812.26484 L539.658328,812.859927 C543.625074,812.864445 547.713687,811.120106 548.768247,808.958373 C549.796665,806.792253 547.351714,805.036452 543.322443,805.041093 Z M543.322443,805.041093" id="Path" fill="#A1B8B8"></path>
            <path d="M543.074896,3.70910009 L12.4795365,4.31969217 C8.44736013,4.32432829 6.28068836,5.80438082 7.66017932,7.62637661 C9.06081663,9.44797188 13.4187634,10.928325 17.3832928,10.9328479 L539.410781,11.5279343 C543.377527,11.5324527 547.466139,9.78811314 548.5207,7.62638084 C549.549118,5.46026107 547.104167,3.70445934 543.074896,3.70910009 Z M543.074896,3.70910009" id="Path" fill="#A1B8B8" transform="translate(278.000000, 7.618517) rotate(-180.000000) translate(-278.000000, -7.618517) "></path>
            <path d="M274.664,7.04727273 L280.594667,808.210909" id="Line" stroke="#A1B8B8" stroke-width="5" stroke-linecap="square"></path>
            <path d="M228.455865,10.7678629 L274.273599,10.4151133 L274.273599,49.4290301 C274.273598,49.4290295 263.538439,44.3783899 252.538214,44.3783899 C243.63915,44.9721721 236.98555,49.4290295 228.455865,49.9269915 C228.455865,49.9269915 224.005012,46.1186152 228.455865,32.8707098 C232.906717,19.6228044 228.455865,10.7678629 228.455865,10.7678629 Z M228.455865,10.7678629" id="Path 2" fill="#A1B8B8"></path>
            <path d="M213.851028,12.8326525 C213.851028,12.8326525 221.090097,12.2736495 228.225613,12.2736494 C228.51536,12.2736494 245.63997,12.2736494 257.634322,20.3891178 C270.667103,29.2071957 271.700441,39.4209562 271.70044,49.1464698 C271.700431,63.2442989 271.70044,78.7160108 271.70044,78.7160108" id="Path 3" stroke="#D5FEFF" stroke-width="3"></path>
        </g>
        <g id="Group" transform="translate(39.000000, 6.000000)">
            <path d="M271.004153,27.1454983 C420.228141,27.1454983 541.198072,23.4390484 541.198072,18.8669102 C541.198072,14.294772 420.228141,10.5883221 271.004153,10.5883221 C121.780164,10.5883221 0.810233411,14.294772 0.810233411,18.8669102 C0.810233411,23.4390484 121.780164,27.1454983 271.004153,27.1454983 Z M271.004153,27.1454983" id="Oval 1" stroke="#979797" stroke-width="2"></path>
            <path d="M208.134875,1.94979538 L208.134875,20.6666033 L333.434328,20.6666033 L333.434328,1.94979538 L208.134875,1.94979538 Z M208.134875,1.94979538" id="Rectangle 4" fill="#FFFFFF"></path>
            <text id="laize 140 - 150 cm" fill="#000000" font-family="Helvetica" font-size="14" font-weight="normal" x="215.682559" y="14.75">
                <tspan>laize 140 - 150 cm</tspan>
            </text>
            <path d="M262.479516,24.2659894 L262.479516,30.7448844 L272.116062,30.7448844 L272.116062,24.2659894 L262.479516,24.2659894 Z M262.479516,24.2659894" id="Rectangle 5" fill="#FFFFFF"></path>
            <path d="M271.374789,29.30513 C272.60297,29.30513 273.598607,28.33823 273.598607,27.1454983 C273.598607,25.9527666 272.60297,24.9858666 271.374789,24.9858666 C270.146608,24.9858666 269.150971,25.9527666 269.150971,27.1454983 C269.150971,28.33823 270.146608,29.30513 271.374789,29.30513 Z M271.374789,29.30513" id="Oval 2" fill="#9B9B9B"></path>
            <path d="M262.479516,29.30513 C263.707697,29.30513 264.703334,28.33823 264.703334,27.1454983 C264.703334,25.9527666 263.707697,24.9858666 262.479516,24.9858666 C261.251335,24.9858666 260.255698,25.9527666 260.255698,27.1454983 C260.255698,28.33823 261.251335,29.30513 262.479516,29.30513 Z M262.479516,29.30513" id="Oval 2" fill="#9B9B9B"></path>
        </g>
        <g id="MANCHE DEVANT" transform="translate(17.000000, 629.000000)">
            <path d="M30.7414367,1 L30.7414367,201.902602 L282.829915,201.902602 L282.829915,1 L30.7414367,1 Z M30.7414367,1" id="Rectangle 6" stroke="#000000"></path>
            <path d="M20.6150007,0.372041856 L20.6150007,199.786477" id="Line" stroke="#4A4A4A" stroke-linecap="square" fill="#4A4A4A"></path>
            <path id="Line decoration-1" d="M20.6150007,199.372048 C21.6650007,195.592048 22.5650007,192.352048 23.6150007,188.572048 C21.5150007,188.572048 19.7150007,188.572048 17.6150007,188.572048 C18.6650007,192.352048 19.5650007,195.592048 20.6150007,199.372048 C20.6150007,199.372048 20.6150007,199.372048 20.6150007,199.372048 Z M20.6150007,199.372048" stroke="#4A4A4A" stroke-linecap="square" fill="#4A4A4A"></path>
            <path id="Line decoration-2" d="M20.6150007,1.17204188 C21.6650007,4.95204205 22.5650007,8.19204219 23.6150007,11.9720424 C21.5150007,11.9720423 19.7150007,11.9720422 17.6150007,11.9720421 C18.6650007,8.19204202 19.5650007,4.95204195 20.6150007,1.17204188 C20.6150007,1.17204188 20.6150007,1.17204188 20.6150007,1.17204188 Z M20.6150007,1.17204188" stroke="#4A4A4A" stroke-linecap="square" fill="#4A4A4A"></path>
            <text id="27 cm" fill="#4A4A4A" transform="translate(8.281667, 100.533936) rotate(-270.000000) translate(-8.281667, -100.533936) " font-family="Helvetica Neue" font-size="13.125" font-weight="normal" x="-16.4164099" y="107.957091">
                <tspan>27 cm</tspan>
            </text>
            <text id="34 cm" fill="#4A4A4A" font-family="Helvetica Neue" font-size="13.125" font-weight="normal" x="139.747882" y="224.049305">
                <tspan>34 cm</tspan>
            </text>
            <path d="M30.3707184,208.971398 L283.200634,208.971398" id="Line" stroke="#4A4A4A" stroke-linecap="square" fill="#4A4A4A"></path>
            <path id="Line decoration-1" d="M282.370723,208.971398 C278.590723,207.921398 275.350723,207.021398 271.570723,205.971398 C271.570723,208.071398 271.570723,209.871398 271.570723,211.971398 C275.350723,210.921398 278.590723,210.021398 282.370723,208.971398 C282.370723,208.971398 282.370723,208.971398 282.370723,208.971398 Z M282.370723,208.971398" stroke="#4A4A4A" stroke-linecap="square" fill="#4A4A4A"></path>
            <path id="Line decoration-2" d="M31.1707184,208.971398 C34.9507184,207.921398 38.1907185,207.021398 41.9707186,205.971398 C41.9707186,208.071398 41.9707186,209.871398 41.9707186,211.971398 C38.1907185,210.921398 34.9507184,210.021398 31.1707184,208.971398 C31.1707184,208.971398 31.1707184,208.971398 31.1707184,208.971398 Z M31.1707184,208.971398" stroke="#4A4A4A" stroke-linecap="square" fill="#4A4A4A"></path>
            <text id="MANCHE" fill="#7C7979" transform="translate(172.877723, 102.789301) rotate(-270.000000) translate(-172.877723, -102.789301) " font-family="Helvetica Neue" font-size="24.9625687" font-weight="normal" x="115.416378" y="116.171799">
                <tspan>MANCHE</tspan>
            </text>
        </g>
        <g id="DEVANT" transform="translate(23.377065, 68.000158)">
            <path d="M9.22481402,24.0887721 L9.22481402,543.671862 L224.319085,543.671862 L224.319085,24.0887721 L9.22481402,24.0887721 Z M9.22481402,24.0887721" id="Rectangle 8" stroke="#000000"></path>
            <path d="M83.3952523,24.0887721 C83.3952514,26.1868743 83.3952536,24.9387001 83.3952539,30.8537258 C83.3952539,36.7687514 46.6560079,71.9364725 16.3837453,75.6207983 C16.158476,75.648215 11.5867599,75.6207983 9.07912536,75.6207983" id="Path 14" stroke="#4A4A4A" stroke-dasharray="2,1"></path>
            <path d="M8.85396183,17.0372873 L83.0244001,17.0372873" id="Line" stroke="#4A4A4A" stroke-linecap="square" fill="#4A4A4A"></path>
            <path id="Line decoration-1" d="M82.8539594,17.0372873 C79.0739595,15.9872873 75.8339597,15.0872873 72.0539598,14.0372873 C72.0539598,16.1372873 72.0539598,17.9372873 72.0539598,20.0372873 C75.8339597,18.9872873 79.0739595,18.0872873 82.8539594,17.0372873 C82.8539594,17.0372873 82.8539594,17.0372873 82.8539594,17.0372873 Z M82.8539594,17.0372873" stroke="#4A4A4A" stroke-linecap="square" fill="#4A4A4A"></path>
            <path id="Line decoration-2" d="M9.6539618,17.0372873 C13.4339617,15.9872873 16.6739616,15.0872873 20.4539614,14.0372873 C20.4539614,16.1372873 20.4539614,17.9372873 20.4539614,20.0372873 C16.6739616,18.9872873 13.4339617,18.0872873 9.6539618,17.0372873 C9.6539618,17.0372873 9.6539618,17.0372873 9.6539618,17.0372873 Z M9.6539618,17.0372873" stroke="#4A4A4A" stroke-linecap="square" fill="#4A4A4A"></path>
            <text id="10 cm" fill="#4A4A4A" font-family="Helvetica Neue" font-size="13.125" font-weight="normal" x="27.4184684" y="15.716454">
                <tspan>10 cm</tspan>
            </text>
            <path d="M1.436918,24.4599029 L1.436918,74.9336888" id="Line" stroke="#4A4A4A" stroke-linecap="square" fill="#4A4A4A"></path>
            <path id="Line decoration-1" d="M1.436918,74.4599034 C2.486918,70.6799034 3.386918,67.4399034 4.436918,63.6599034 C2.336918,63.6599033 0.536917999,63.6599032 -1.563082,63.6599031 C-0.513082001,67.4399032 0.386917999,70.6799033 1.436918,74.4599034 C1.436918,74.4599034 1.436918,74.4599034 1.436918,74.4599034 Z M1.436918,74.4599034" stroke="#4A4A4A" stroke-linecap="square" fill="#4A4A4A"></path>
            <path id="Line decoration-2" d="M1.436918,25.2599029 C2.486918,29.039903 3.386918,32.279903 4.436918,36.0599031 C2.336918,36.059903 0.536917999,36.0599029 -1.563082,36.0599028 C-0.513082001,32.2799029 0.386917999,29.0399029 1.436918,25.2599029 C1.436918,25.2599029 1.436918,25.2599029 1.436918,25.2599029 Z M1.436918,25.2599029" stroke="#4A4A4A" stroke-linecap="square" fill="#4A4A4A"></path>
            <path d="M244.715956,23.7176413 L244.715956,542.55847" id="Line" stroke="#4A4A4A" stroke-linecap="square" fill="#4A4A4A"></path>
            <path id="Line decoration-1" d="M244.715956,541.71765 C245.765956,537.93765 246.665956,534.69765 247.715956,530.91765 C245.615956,530.91765 243.815956,530.91765 241.715956,530.917649 C242.765956,534.69765 243.665956,537.93765 244.715956,541.71765 C244.715956,541.71765 244.715956,541.71765 244.715956,541.71765 Z M244.715956,541.71765" stroke="#4A4A4A" stroke-linecap="square" fill="#4A4A4A"></path>
            <path id="Line decoration-2" d="M244.715956,24.5176413 C245.765956,28.2976414 246.665956,31.5376415 247.715956,35.3176416 C245.615956,35.3176415 243.815956,35.3176415 241.715956,35.3176414 C242.765956,31.5376413 243.665956,28.2976413 244.715956,24.5176413 C244.715956,24.5176413 244.715956,24.5176413 244.715956,24.5176413 Z M244.715956,24.5176413" stroke="#4A4A4A" stroke-linecap="square" fill="#4A4A4A"></path>
            <path d="M161.274208,175.51013 L161.274208,254.932117" id="Line" stroke="#D70014" stroke-width="2" stroke-linecap="square"></path>
            <path id="Line decoration-1" d="M161.274208,254.510127 C162.324208,250.730127 163.224208,247.490127 164.274208,243.710128 C162.174208,243.710127 160.374208,243.710127 158.274208,243.710127 C159.324208,247.490127 160.224208,250.730127 161.274208,254.510127 C161.274208,254.510127 161.274208,254.510127 161.274208,254.510127 Z M161.274208,254.510127" stroke="#D70014" stroke-width="2" stroke-linecap="square"></path>
            <path id="Line decoration-2" d="M161.274208,176.31013 C162.324208,180.09013 163.224208,183.33013 164.274208,187.11013 C162.174208,187.110129 160.374208,187.110129 158.274208,187.110129 C159.324208,183.330129 160.224208,180.09013 161.274208,176.31013 C161.274208,176.31013 161.274208,176.31013 161.274208,176.31013 Z M161.274208,176.31013" stroke="#D70014" stroke-width="2" stroke-linecap="square"></path>
            <text id="7 cm" fill="#4A4A4A" transform="translate(17.983110, 51.381942) rotate(-270.000000) translate(-17.983110, -51.381942) " font-family="Helvetica Neue" font-size="13.125" font-weight="normal" x="-0.948681903" y="58.8050973">
                <tspan>7 cm</tspan>
            </text>
            <text id="70 cm" fill="#4A4A4A" transform="translate(257.332596, 275.204808) rotate(-270.000000) translate(-257.332596, -275.204808) " font-family="Helvetica Neue" font-size="13.125" font-weight="normal" x="234.126677" y="282.627963">
                <tspan>70 cm</tspan>
            </text>
            <path d="M9.22481402,521.032885 L224.319085,521.032885" id="Line" stroke="#4A4A4A" stroke-linecap="square" fill="#4A4A4A"></path>
            <path id="Line decoration-1" d="M224.224816,521.032885 C220.444816,519.982885 217.204816,519.082885 213.424816,518.032885 C213.424816,520.132885 213.424816,521.932885 213.424816,524.032885 C217.204816,522.982885 220.444816,522.082885 224.224816,521.032885 C224.224816,521.032885 224.224816,521.032885 224.224816,521.032885 Z M224.224816,521.032885" stroke="#4A4A4A" stroke-linecap="square" fill="#4A4A4A"></path>
            <path id="Line decoration-2" d="M10.024814,521.032885 C13.8048141,519.982885 17.0448141,519.082885 20.8248141,518.032885 C20.8248141,520.132885 20.8248141,521.932885 20.8248141,524.032885 C17.0448141,522.982885 13.8048141,522.082885 10.024814,521.032885 C10.024814,521.032885 10.024814,521.032885 10.024814,521.032885 Z M10.024814,521.032885" stroke="#4A4A4A" stroke-linecap="square" fill="#4A4A4A"></path>
            <path d="M9.22481402,498.765038 L209.484997,498.765038" id="Line" stroke="#4A4A4A" stroke-linecap="square" fill="#4A4A4A"></path>
            <path id="Line decoration-1" d="M209.22482,498.765038 C205.44482,497.715038 202.20482,496.815038 198.424819,495.765038 C198.424819,497.865038 198.424819,499.665038 198.424819,501.765038 C202.20482,500.715038 205.44482,499.815038 209.22482,498.765038 C209.22482,498.765038 209.22482,498.765038 209.22482,498.765038 Z M209.22482,498.765038" stroke="#4A4A4A" stroke-linecap="square" fill="#4A4A4A"></path>
            <path id="Line decoration-2" d="M10.024814,498.765038 C13.8048141,497.715038 17.0448142,496.815038 20.8248143,495.765038 C20.8248143,497.865038 20.8248143,499.665038 20.8248143,501.765038 C17.0448142,500.715038 13.8048141,499.815038 10.024814,498.765038 C10.024814,498.765038 10.024814,498.765038 10.024814,498.765038 Z M10.024814,498.765038" stroke="#4A4A4A" stroke-linecap="square" fill="#4A4A4A"></path>
            <path d="M9.22481402,476.497191 L194.65091,476.497191" id="Line" stroke="#4A4A4A" stroke-linecap="square" fill="#4A4A4A"></path>
            <path id="Line decoration-1" d="M194.224808,476.497191 C190.444808,475.447191 187.204808,474.547191 183.424808,473.497191 C183.424808,475.597191 183.424808,477.397191 183.424808,479.497191 C187.204808,478.447191 190.444808,477.547191 194.224808,476.497191 C194.224808,476.497191 194.224808,476.497191 194.224808,476.497191 Z M194.224808,476.497191" stroke="#4A4A4A" stroke-linecap="square" fill="#4A4A4A"></path>
            <path id="Line decoration-2" d="M10.024814,476.497191 C13.8048139,475.447191 17.0448138,474.547191 20.8248136,473.497191 C20.8248136,475.597191 20.8248136,477.397191 20.8248136,479.497191 C17.0448138,478.447191 13.8048139,477.547191 10.024814,476.497191 C10.024814,476.497191 10.024814,476.497191 10.024814,476.497191 Z M10.024814,476.497191" stroke="#4A4A4A" stroke-linecap="square" fill="#4A4A4A"></path>
            <text id="T42 - 44 : 29 cm" fill="#4A4A4A" font-family="Helvetica Neue" font-size="13.125" font-weight="normal" x="56.868791" y="516.997417">
                <tspan>T42 - 44 : 29 cm</tspan>
            </text>
            <text id="T38 - 40 : 27 cm" fill="#4A4A4A" font-family="Helvetica Neue" font-size="13.125" font-weight="normal" x="60.7081362" y="494.72957">
                <tspan>T38 - 40 : 27 cm</tspan>
            </text>
            <text id="T34 - 36 : 25 cm" fill="#4A4A4A" font-family="Helvetica Neue" font-size="13.125" font-weight="normal" x="61.1394116" y="473.434097">
                <tspan>T34 - 36 : 25 cm</tspan>
            </text>
            <text fill="#7C7979" transform="translate(105.391511, 264.454904) rotate(-270.000000) translate(-105.391511, -264.454904) " font-family="Helvetica Neue" font-size="24.9625687" font-weight="normal" x="54.2139086" y="277.837402">
                <tspan>DEVANT</tspan>
            </text>
            <path d="M223.948233,24.0887721 L223.948233,543.671862" id="Line" stroke="#4A4A4A" stroke-linecap="square" stroke-dasharray="10,5,2,3"></path>
            <path d="M194.280057,24.0887721 L194.280057,543.671862" id="Line" stroke="#4A4A4A" stroke-linecap="square"></path>
        </g>
        <g id="MANCHE DOS" transform="translate(320.000000, 630.000000)">
            <path d="M0.741436702,0 L0.741436702,200.902602 L252.829915,200.902602 L252.829915,0 L0.741436702,0 Z M0.741436702,0" id="Rectangle 6" stroke="#000000"></path>
            <path d="M260.615001,0.372041856 L260.615001,199.786477" id="Line" stroke="#4A4A4A" stroke-linecap="square" fill="#4A4A4A"></path>
            <path id="Line decoration-1" d="M260.615001,199.372048 C261.665001,195.592048 262.565001,192.352048 263.615001,188.572048 C261.515001,188.572048 259.715001,188.572048 257.615001,188.572048 C258.665001,192.352048 259.565001,195.592048 260.615001,199.372048 C260.615001,199.372048 260.615001,199.372048 260.615001,199.372048 Z M260.615001,199.372048" stroke="#4A4A4A" stroke-linecap="square" fill="#4A4A4A"></path>
            <path id="Line decoration-2" d="M260.615001,1.17204188 C261.665001,4.95204205 262.565001,8.19204219 263.615001,11.9720424 C261.515001,11.9720423 259.715001,11.9720422 257.615001,11.9720421 C258.665001,8.19204202 259.565001,4.95204195 260.615001,1.17204188 C260.615001,1.17204188 260.615001,1.17204188 260.615001,1.17204188 Z M260.615001,1.17204188" stroke="#4A4A4A" stroke-linecap="square" fill="#4A4A4A"></path>
            <text id="27 cm" fill="#4A4A4A" transform="translate(272.281667, 107.537788) rotate(-270.000000) translate(-272.281667, -107.537788) " font-family="Helvetica Neue" font-size="13.125" font-weight="normal" x="249.02109" y="114.960944">
                <tspan>27 cm</tspan>
            </text>
            <text id="34 cm" fill="#4A4A4A" font-family="Helvetica Neue" font-size="13.125" font-weight="normal" x="120.037401" y="223.049305">
                <tspan>34 cm</tspan>
            </text>
            <path d="M0.370718351,207.971398 L253.200634,207.971398" id="Line" stroke="#4A4A4A" stroke-linecap="square" fill="#4A4A4A"></path>
            <path id="Line decoration-1" d="M252.370723,207.971398 C248.590723,206.921398 245.350723,206.021398 241.570723,204.971398 C241.570723,207.071398 241.570723,208.871398 241.570723,210.971398 C245.350723,209.921398 248.590723,209.021398 252.370723,207.971398 C252.370723,207.971398 252.370723,207.971398 252.370723,207.971398 Z M252.370723,207.971398" stroke="#4A4A4A" stroke-linecap="square" fill="#4A4A4A"></path>
            <path id="Line decoration-2" d="M1.17071837,207.971398 C4.95071844,206.921398 8.19071851,206.021398 11.9707186,204.971398 C11.9707186,207.071398 11.9707186,208.871398 11.9707186,210.971398 C8.19071851,209.921398 4.95071844,209.021398 1.17071837,207.971398 C1.17071837,207.971398 1.17071837,207.971398 1.17071837,207.971398 Z M1.17071837,207.971398" stroke="#4A4A4A" stroke-linecap="square" fill="#4A4A4A"></path>
            <text id="MANCHE" fill="#7C7979" transform="translate(129.414822, 89.157403) rotate(-270.000000) translate(-129.414822, -89.157403) " font-family="Helvetica Neue" font-size="24.9625687" font-weight="normal" x="71.9534774" y="102.539901">
                <tspan>MANCHE</tspan>
            </text>
        </g>
        <text id="droit fil" fill="#D70014" transform="translate(195.500000, 294.621973) rotate(-270.000000) translate(-195.500000, -294.621973) " font-family="Helvetica" font-size="14" font-weight="normal" x="166.878027" y="300.121973">
            <tspan>droit fil</tspan>
        </text>
        <g id="DOS" transform="translate(371.923434, 67.592870)">
            <path d="M0.546849841,25.3476352 L0.546849841,544.704337 L215.736469,544.704337 L215.736469,25.3476352 L0.546849841,25.3476352 Z M0.546849841,25.3476352" id="Rectangle 8" stroke="#000000"></path>
            <path d="M0.917866426,25.3476352 L0.917866426,544.704337" id="Line" stroke="#4A4A4A" stroke-linecap="square" stroke-dasharray="10,5,2,3"></path>
            <path d="M15.7585298,25.3476352 L15.7585298,544.704337" id="Path" stroke="#4A4A4A" stroke-linecap="square" stroke-dasharray="10,5,2,3"></path>
            <path d="M30.5991932,26.0895733 L30.5991932,545.446275" id="Line" stroke="#4A4A4A" stroke-linecap="square"></path>
            <path d="M215.736472,46.8653254 C198.98467,47.5312123 141.624731,34.6494863 141.624731,32.0396503 L141.624731,31.8266656 C141.624731,28.5871502 141.624731,27.9454415 141.624731,25.3476347" id="Path 14" stroke="#4A4A4A" stroke-dasharray="2,1"></path>
            <path d="M141.162135,17.5572846 L215.365452,17.5572846" id="Line" stroke="#4A4A4A" stroke-linecap="square" fill="#4A4A4A"></path>
            <path id="Line decoration-1" d="M215.162137,17.5572846 C211.382137,16.5072846 208.142137,15.6072846 204.362136,14.5572846 C204.362136,16.6572846 204.362136,18.4572846 204.362136,20.5572846 C208.142137,19.5072846 211.382137,18.6072846 215.162137,17.5572846 C215.162137,17.5572846 215.162137,17.5572846 215.162137,17.5572846 Z M215.162137,17.5572846" stroke="#4A4A4A" stroke-linecap="square" fill="#4A4A4A"></path>
            <path id="Line decoration-2" d="M141.962135,17.5572846 C145.742136,16.5072846 148.982136,15.6072846 152.762136,14.5572846 C152.762136,16.6572846 152.762136,18.4572846 152.762136,20.5572846 C148.982136,19.5072846 145.742136,18.6072846 141.962135,17.5572846 C141.962135,17.5572846 141.962135,17.5572846 141.962135,17.5572846 Z M141.962135,17.5572846" stroke="#4A4A4A" stroke-linecap="square" fill="#4A4A4A"></path>
            <text id="10 cm" fill="#4A4A4A" font-family="Helvetica Neue" font-size="13.125" font-weight="normal" x="162.922935" y="15.2761299">
                <tspan>10 cm</tspan>
            </text>
            <path d="M220.616649,25.3024385 L220.616649,54.0975264" id="Line" stroke="#4A4A4A" stroke-linecap="square" fill="#4A4A4A"></path>
            <path id="Line decoration-1" d="M220.616649,53.3024386 C221.666649,49.5224386 222.566649,46.2824386 223.616649,42.5024387 C221.516649,42.5024386 219.716649,42.5024385 217.616649,42.5024384 C218.666649,46.2824385 219.566649,49.5224385 220.616649,53.3024386 C220.616649,53.3024386 220.616649,53.3024386 220.616649,53.3024386 Z M220.616649,53.3024386" stroke="#4A4A4A" stroke-linecap="square" fill="#4A4A4A"></path>
            <path id="Line decoration-2" d="M220.616649,26.1024385 C221.666649,29.8824386 222.566649,33.1224386 223.616649,36.9024387 C221.516649,36.9024386 219.716649,36.9024385 217.616649,36.9024384 C218.666649,33.1224384 219.566649,29.8824385 220.616649,26.1024385 C220.616649,26.1024385 220.616649,26.1024385 220.616649,26.1024385 Z M220.616649,26.1024385" stroke="#4A4A4A" stroke-linecap="square" fill="#4A4A4A"></path>
            <text id="3 cm" fill="#4A4A4A" transform="translate(234.069495, 39.872488) rotate(-270.000000) translate(-234.069495, -39.872488) " font-family="Helvetica Neue" font-size="13.125" font-weight="normal" x="219.123354" y="47.2956437">
                <tspan>3 cm</tspan>
            </text>
            <path d="M0.546849841,522.075224 L215.736469,522.075224" id="Line" stroke="#4A4A4A" stroke-linecap="square" fill="#4A4A4A"></path>
            <path id="Line decoration-1" d="M215.546848,522.075224 C211.766848,521.025224 208.526848,520.125224 204.746848,519.075224 C204.746848,521.175224 204.746848,522.975224 204.746848,525.075224 C208.526848,524.025224 211.766848,523.125224 215.546848,522.075224 C215.546848,522.075224 215.546848,522.075224 215.546848,522.075224 Z M215.546848,522.075224" stroke="#4A4A4A" stroke-linecap="square" fill="#4A4A4A"></path>
            <path id="Line decoration-2" d="M1.34684983,522.075224 C5.1268498,521.025224 8.36684978,520.125224 12.1468497,519.075224 C12.1468497,521.175224 12.1468497,522.975224 12.1468497,525.075224 C8.36684978,524.025224 5.1268498,523.125224 1.34684983,522.075224 C1.34684983,522.075224 1.34684983,522.075224 1.34684983,522.075224 Z M1.34684983,522.075224" stroke="#4A4A4A" stroke-linecap="square" fill="#4A4A4A"></path>
            <path d="M14.6454801,499.817079 L214.994436,499.817079" id="Line" stroke="#4A4A4A" stroke-linecap="square" fill="#4A4A4A"></path>
            <path id="Line decoration-1" d="M214.645483,499.817079 C210.865483,498.767079 207.625482,497.867079 203.845482,496.817079 C203.845482,498.917079 203.845482,500.717079 203.845482,502.817079 C207.625482,501.767079 210.865483,500.867079 214.645483,499.817079 C214.645483,499.817079 214.645483,499.817079 214.645483,499.817079 Z M214.645483,499.817079" stroke="#4A4A4A" stroke-linecap="square" fill="#4A4A4A"></path>
            <path id="Line decoration-2" d="M15.4454801,499.817079 C19.2254801,498.767079 22.4654802,497.867079 26.2454802,496.817079 C26.2454802,498.917079 26.2454802,500.717079 26.2454802,502.817079 C22.4654802,501.767079 19.2254801,500.867079 15.4454801,499.817079 C15.4454801,499.817079 15.4454801,499.817079 15.4454801,499.817079 Z M15.4454801,499.817079" stroke="#4A4A4A" stroke-linecap="square" fill="#4A4A4A"></path>
            <path d="M30.2281766,477.558935 L215.736469,477.558935" id="Line" stroke="#4A4A4A" stroke-linecap="square" fill="#4A4A4A"></path>
            <path id="Line decoration-1" d="M215.228183,477.558935 C211.448183,476.508935 208.208183,475.608935 204.428183,474.558935 C204.428183,476.658935 204.428183,478.458935 204.428183,480.558935 C208.208183,479.508935 211.448183,478.608935 215.228183,477.558935 C215.228183,477.558935 215.228183,477.558935 215.228183,477.558935 Z M215.228183,477.558935" stroke="#4A4A4A" stroke-linecap="square" fill="#4A4A4A"></path>
            <path id="Line decoration-2" d="M31.0281766,477.558935 C34.8081768,476.508935 38.0481769,475.608935 41.828177,474.558935 C41.828177,476.658935 41.828177,478.458935 41.828177,480.558935 C38.0481769,479.508935 34.8081768,478.608935 31.0281766,477.558935 C31.0281766,477.558935 31.0281766,477.558935 31.0281766,477.558935 Z M31.0281766,477.558935" stroke="#4A4A4A" stroke-linecap="square" fill="#4A4A4A"></path>
            <text id="T42 - 44 : 29 cm" fill="#4A4A4A" font-family="Helvetica Neue" font-size="13.125" font-weight="normal" x="70.2979678" y="518.699156">
                <tspan>T42 - 44 : 29 cm</tspan>
            </text>
            <text id="T38 - 40 : 27 cm" fill="#4A4A4A" font-family="Helvetica Neue" font-size="13.125" font-weight="normal" x="70.2979678" y="497.18295">
                <tspan>T38 - 40 : 27 cm</tspan>
            </text>
            <text id="T34 - 36 : 25 cm" fill="#4A4A4A" font-family="Helvetica Neue" font-size="13.125" font-weight="normal" x="70.2979678" y="473.440929">
                <tspan>T34 - 36 : 25 cm</tspan>
            </text>
            <text fill="#7C7979" transform="translate(121.909223, 275.537508) rotate(-270.000000) translate(-121.909223, -275.537508) " font-family="Helvetica Neue" font-size="24.9625687" font-weight="normal" x="93.340946" y="288.920006">
                <tspan>DOS</tspan>
            </text>
        </g>
        <use id="Line" stroke="#4A4A4A" stroke-linecap="square" stroke-dasharray="10,5,2,3" xlink:href="#path-1"></use>
        <use id="Line-1" xlink:href="#path-1"></use>
        <use id="Line" stroke="#4A4A4A" stroke-linecap="square" stroke-dasharray="10,5,2,3" xlink:href="#path-2"></use>
        <use id="Line-1" xlink:href="#path-2"></use>
    </g>
</svg>