<?xml version="1.0" encoding="UTF-8" standalone="no"?>
<svg width="419px" height="288px" viewBox="0 0 419 288" version="1.1" xmlns="http://www.w3.org/2000/svg" xmlns:xlink="http://www.w3.org/1999/xlink" xmlns:sketch="http://www.bohemiancoding.com/sketch/ns">
    <title>top-kimono-3</title>
    <description>Created with Sketch (http://www.bohemiancoding.com/sketch)</description>
    <defs x2="0%" id="linearGradient-1" x1="100%" y2="52.607584%" y1="52.607582%">
        <linearGradient>
            <stop stop-color="#D5FEFF" offset="0%"></stop>
            <stop stop-color="#FFFFFF" offset="100%"></stop>
        </linearGradient>
    </defs>
    <g id="Page 1" stroke="none" stroke-width="1" fill="none" fill-rule="evenodd">
        <path d="M123.27018,4 L9.59483458,4 C9.59483512,4.00000056 9.59483458,288 9.59483458,288 C9.59483458,288 239.000001,288 239,287.999993 L239,4 L123.27018,4 Z M123.27018,4" id="Rectangle 3" fill="url(#linearGradient-1)"></path>
        <path d="M238.5,186.493691 L238.5,287.5" id="Line" stroke="#C3DEDF" stroke-linecap="square"></path>
        <path d="M239,4 L239,178 L415,178 L415,4 L239,4 Z M239,4" id="Rectangle 2" stroke="#C3DEDF" fill="#D5FEFF"></path>
        <path d="M200.749772,217.997942 L216.844571,217.997955 C216.844571,180.241968 218.250227,168.41411 218.250227,135.944531 C218.250227,103.474952 216.844571,98.7974399 216.844571,53.8910912 C216.844571,8.98474243 218.250227,12.4979551 218.250228,-28.1623308 C218.250228,-68.8226168 216.844571,-62.3203605 216.844571,-110.215757 C216.844571,-158.111154 218.250227,-193.002045 218.250227,-193.002045 L200.749772,-193.002045 L200.749772,217.997942 Z M200.749772,217.997942" id="Path 1" stroke="#3DDADE" fill="#49F0F4" transform="translate(209.500000, 12.497955) rotate(-270.000000) translate(-209.500000, -12.497955) "></path>
        <path d="M243.542483,176.892572 L256.639912,176.892578 C256.639912,160.990158 257.783789,156.00839 257.783789,142.332548 C257.783789,128.656707 256.639912,126.686589 256.639912,107.772512 C256.639912,88.8584356 257.783789,90.3381634 257.783789,73.2124834 C257.78379,56.0868033 256.639912,58.8254845 256.639912,38.6524528 C256.639912,18.479421 257.783789,3.78374875 257.783789,3.78374875 L243.542483,3.78374875 L243.542483,176.892572 Z M243.542483,176.892572" id="Path 1" stroke="#3DDADE" fill="#4AEFF3"></path>
        <path d="M239.66132,176.892572 L252.758749,176.892578 C252.758749,160.990158 253.902626,156.00839 253.902626,142.332548 C253.902626,128.656707 252.758749,126.686589 252.758749,107.772512 C252.758748,88.8584356 253.902626,90.3381634 253.902626,73.2124834 C253.902627,56.0868033 252.758749,58.8254845 252.758749,38.6524528 C252.758748,18.479421 253.902626,3.78374875 253.902626,3.78374875 L239.66132,3.78374875 L239.66132,176.892572 Z M239.66132,176.892572" id="Path 1" stroke="#C3DEDF" fill="#D5FEFF"></path>
        <path d="M244.189323,177.891261 L255.740863,177.891261 L257.412496,158.328787 L244.189323,158.328787 L244.189323,177.891261 Z M244.189323,177.891261" id="Path 1" stroke="#3DDADE" fill="#4AEFF3"></path>
        <path d="M239.897984,177.900548 L252.161438,177.900548 L253.384359,158.328787 L240.086692,158.328787 L239.897984,177.900548 Z M239.897984,177.900548" id="Path 1" stroke="#C3DEDF" fill="#D5FEFF"></path>
        <path d="M414.464846,157.780294 L222.465487,157.780294 L222.465487,287.998681" id="Path 6" stroke="#E25944" stroke-dasharray="2"></path>
        <path d="M222.811678,190.547034 L239.657679,155.60464 L247.792319,194.00389" id="Triangle 1" stroke="#C3DEDF" stroke-dasharray="2" fill="#FFFFFF" transform="translate(235.301999, 174.804265) rotate(-49.000000) translate(-235.301999, -174.804265) "></path>
        <path d="M254.040208,172.800375 L262.174848,211.199625 L250.035965,196.948639 L237.194208,207.742769 L254.040208,172.800375 Z M254.040208,172.800375" id="Triangle 1" stroke="#C3DEDF" stroke-dasharray="2" fill="#D5FEFF" transform="translate(249.684528, 192.000000) rotate(-49.000000) translate(-249.684528, -192.000000) "></path>
    </g>
</svg>