<?xml version="1.0" encoding="UTF-8" standalone="no"?>
<svg width="512px" height="365px" viewBox="0 0 512 365" version="1.1" xmlns="http://www.w3.org/2000/svg" xmlns:xlink="http://www.w3.org/1999/xlink" xmlns:sketch="http://www.bohemiancoding.com/sketch/ns">
    <title>top-kimono-4</title>
    <description>Created with Sketch (http://www.bohemiancoding.com/sketch)</description>
    <defs></defs>
    <g id="Page 1" stroke="none" stroke-width="1" fill="none" fill-rule="evenodd">
        <path d="M247.568468,26 C247.568466,26 214.300196,41.0253229 178.38726,41.0253229 C147.218832,41.0253289 113.055622,26 113.055622,26 L77,26 L77,331 L318,331 L318,26 L247.568468,26 Z M247.568468,26" id="Rectangle 3" fill="#D5FEFF"></path>
        <path d="M317.5,126.5 L317.5,330.5" id="Line" stroke="#C3DEDF" stroke-linecap="square"></path>
        <path d="M317,26 L317,127 L419,127 L419,26 L317,26 Z M317,26" id="Rectangle 2" stroke="#C3DEDF" fill="#D5FEFF"></path>
        <path d="M329.574914,114.607916 L336.248018,114.607922 C336.248018,98.9538175 336.830821,94.0498398 336.830821,80.5875468 C336.830821,67.1252537 336.248018,65.1858987 336.248018,46.5671655 C336.248018,27.9484322 336.830821,29.4050541 336.830821,12.5467915 C336.830821,-4.31147105 336.248018,-1.61555436 336.248018,-21.4735842 C336.248018,-41.3316141 336.830821,-55.7978134 336.830821,-55.7978134 L329.574914,-55.7978134 L329.574914,114.607916 Z M329.574914,114.607916" id="Path 1" stroke="#3DDADE" fill="#49F0F4" transform="translate(333.202868, 29.405054) rotate(-270.000000) translate(-333.202868, -29.405054) "></path>
        <path d="M319.66132,126 L326.410549,126.000003 C326.410549,116.797222 327,113.914257 327,106.000003 C327,98.08575 326.410549,96.9456362 326.410549,85.9999995 C326.410549,75.0543627 327,75.9106859 327,66 C327,56.089314 326.410549,57.6741976 326.410549,45.9999995 C326.410549,34.3258013 327,25.8213686 327,25.8213686 L319.66132,25.8213686 L319.66132,126 Z M319.66132,126" id="Path 1" stroke="#3DDADE" fill="#4AEFF3"></path>
        <path d="M317.66132,126 L324.410549,126.000003 C324.410549,116.797222 325,113.914257 325,106.000003 C325,98.08575 324.410549,96.9456362 324.410549,85.9999995 C324.410549,75.0543627 325,75.9106859 325,66 C325,56.089314 324.410549,57.6741976 324.410549,45.9999995 C324.410549,34.3258013 325,25.8213686 325,25.8213686 L317.66132,25.8213686 L317.66132,126 Z M317.66132,126" id="Path 1" stroke="#C3DEDF" fill="#D5FEFF"></path>
        <path d="M113.816406,26.9393783 C110.308593,33.1496362 151.325086,62.8914895 180.771375,62.8900435 C210.217664,62.8885977 247.082789,43.4295701 247.082791,25.9254627 C243.618344,26.8706679 171.665039,41.7646132 113.816406,26.9393783 Z M113.816406,26.9393783" id="Path 4" stroke="#C3DEDF" fill="#4AEFF3"></path>
        <g id="epingle" transform="translate(404.000000, 101.000000)">
            <path d="M2.5,3.5 L2.5,11.479988 M2.5,19.7104521 L2.5,29.5" id="Line" stroke="#BCB5B5" stroke-linecap="round"></path>
            <path d="M2.5,5 C3.88071194,5 5,3.88071194 5,2.5 C5,1.11928806 3.88071194,0 2.5,0 C1.11928806,0 0,1.11928806 0,2.5 C0,3.88071194 1.11928806,5 2.5,5 Z M2.5,5" id="Oval 1" fill="#EF3C4D"></path>
        </g>
        <g id="epingle" transform="translate(304.417969, 133.945312) rotate(-90.000000) translate(-304.417969, -133.945312) translate(301.917969, 118.945312)">
            <path d="M2.5,3.5 L2.5,11.479988 M2.5,19.7104521 L2.5,29.5" id="Line" stroke="#BCB5B5" stroke-linecap="round"></path>
            <path d="M2.5,5 C3.88071194,5 5,3.88071194 5,2.5 C5,1.11928806 3.88071194,0 2.5,0 C1.11928806,0 0,1.11928806 0,2.5 C0,3.88071194 1.11928806,5 2.5,5 Z M2.5,5" id="Oval 1" fill="#EF3C4D"></path>
        </g>
        <g id="epingle" transform="translate(305.000000, 156.945312) rotate(-90.000000) translate(-305.000000, -156.945312) translate(302.500000, 141.945312)">
            <path d="M2.5,3.5 L2.5,11.479988 M2.5,19.7104521 L2.5,29.5" id="Line" stroke="#BCB5B5" stroke-linecap="round"></path>
            <path d="M2.5,5 C3.88071194,5 5,3.88071194 5,2.5 C5,1.11928806 3.88071194,0 2.5,0 C1.11928806,0 0,1.11928806 0,2.5 C0,3.88071194 1.11928806,5 2.5,5 Z M2.5,5" id="Oval 1" fill="#EF3C4D"></path>
        </g>
        <g id="epingle" transform="translate(305.000000, 179.945312) rotate(-90.000000) translate(-305.000000, -179.945312) translate(302.500000, 164.945312)">
            <path d="M2.5,3.5 L2.5,11.479988 M2.5,19.7104521 L2.5,29.5" id="Line" stroke="#BCB5B5" stroke-linecap="round"></path>
            <path d="M2.5,5 C3.88071194,5 5,3.88071194 5,2.5 C5,1.11928806 3.88071194,0 2.5,0 C1.11928806,0 0,1.11928806 0,2.5 C0,3.88071194 1.11928806,5 2.5,5 Z M2.5,5" id="Oval 1" fill="#EF3C4D"></path>
        </g>
        <g id="epingle" transform="translate(305.000000, 202.945312) rotate(-90.000000) translate(-305.000000, -202.945312) translate(302.500000, 187.945312)">
            <path d="M2.5,3.5 L2.5,11.479988 M2.5,19.7104521 L2.5,29.5" id="Line" stroke="#BCB5B5" stroke-linecap="round"></path>
            <path d="M2.5,5 C3.88071194,5 5,3.88071194 5,2.5 C5,1.11928806 3.88071194,0 2.5,0 C1.11928806,0 0,1.11928806 0,2.5 C0,3.88071194 1.11928806,5 2.5,5 Z M2.5,5" id="Oval 1" fill="#EF3C4D"></path>
        </g>
        <g id="epingle" transform="translate(305.000000, 225.945312) rotate(-90.000000) translate(-305.000000, -225.945312) translate(302.500000, 210.945312)">
            <path d="M2.5,3.5 L2.5,11.479988 M2.5,19.7104521 L2.5,29.5" id="Line" stroke="#BCB5B5" stroke-linecap="round"></path>
            <path d="M2.5,5 C3.88071194,5 5,3.88071194 5,2.5 C5,1.11928806 3.88071194,0 2.5,0 C1.11928806,0 0,1.11928806 0,2.5 C0,3.88071194 1.11928806,5 2.5,5 Z M2.5,5" id="Oval 1" fill="#EF3C4D"></path>
        </g>
        <g id="epingle" transform="translate(305.000000, 248.945312) rotate(-90.000000) translate(-305.000000, -248.945312) translate(302.500000, 233.945312)">
            <path d="M2.5,3.5 L2.5,11.479988 M2.5,19.7104521 L2.5,29.5" id="Line" stroke="#BCB5B5" stroke-linecap="round"></path>
            <path d="M2.5,5 C3.88071194,5 5,3.88071194 5,2.5 C5,1.11928806 3.88071194,0 2.5,0 C1.11928806,0 0,1.11928806 0,2.5 C0,3.88071194 1.11928806,5 2.5,5 Z M2.5,5" id="Oval 1" fill="#EF3C4D"></path>
        </g>
        <g id="epingle" transform="translate(304.000000, 271.945312) rotate(-90.000000) translate(-304.000000, -271.945312) translate(301.500000, 256.945312)">
            <path d="M2.5,3.5 L2.5,11.479988 M2.5,19.7104521 L2.5,29.5" id="Line" stroke="#BCB5B5" stroke-linecap="round"></path>
            <path d="M2.5,5 C3.88071194,5 5,3.88071194 5,2.5 C5,1.11928806 3.88071194,0 2.5,0 C1.11928806,0 0,1.11928806 0,2.5 C0,3.88071194 1.11928806,5 2.5,5 Z M2.5,5" id="Oval 1" fill="#EF3C4D"></path>
        </g>
        <g id="epingle" transform="translate(305.000000, 294.945312) rotate(-90.000000) translate(-305.000000, -294.945312) translate(302.500000, 279.945312)">
            <path d="M2.5,3.5 L2.5,11.479988 M2.5,19.7104521 L2.5,29.5" id="Line" stroke="#BCB5B5" stroke-linecap="round"></path>
            <path d="M2.5,5 C3.88071194,5 5,3.88071194 5,2.5 C5,1.11928806 3.88071194,0 2.5,0 C1.11928806,0 0,1.11928806 0,2.5 C0,3.88071194 1.11928806,5 2.5,5 Z M2.5,5" id="Oval 1" fill="#EF3C4D"></path>
        </g>
        <g id="epingle" transform="translate(320.000000, 99.000000)">
            <path d="M2.5,3.5 L2.5,11.479988 M2.5,19.7104521 L2.5,29.5" id="Line" stroke="#BCB5B5" stroke-linecap="round"></path>
            <path d="M2.5,5 C3.88071194,5 5,3.88071194 5,2.5 C5,1.11928806 3.88071194,0 2.5,0 C1.11928806,0 0,1.11928806 0,2.5 C0,3.88071194 1.11928806,5 2.5,5 Z M2.5,5" id="Oval 1" fill="#EF3C4D"></path>
        </g>
        <g id="epingle" transform="translate(341.000000, 100.000000)">
            <path d="M2.5,3.5 L2.5,11.479988 M2.5,19.7104521 L2.5,29.5" id="Line" stroke="#BCB5B5" stroke-linecap="round"></path>
            <path d="M2.5,5 C3.88071194,5 5,3.88071194 5,2.5 C5,1.11928806 3.88071194,0 2.5,0 C1.11928806,0 0,1.11928806 0,2.5 C0,3.88071194 1.11928806,5 2.5,5 Z M2.5,5" id="Oval 1" fill="#EF3C4D"></path>
        </g>
        <g id="epingle" transform="translate(362.000000, 101.000000)">
            <path d="M2.5,3.5 L2.5,11.479988 M2.5,19.7104521 L2.5,29.5" id="Line" stroke="#BCB5B5" stroke-linecap="round"></path>
            <path d="M2.5,5 C3.88071194,5 5,3.88071194 5,2.5 C5,1.11928806 3.88071194,0 2.5,0 C1.11928806,0 0,1.11928806 0,2.5 C0,3.88071194 1.11928806,5 2.5,5 Z M2.5,5" id="Oval 1" fill="#EF3C4D"></path>
        </g>
        <g id="epingle" transform="translate(383.000000, 101.000000)">
            <path d="M2.5,3.5 L2.5,11.479988 M2.5,19.7104521 L2.5,29.5" id="Line" stroke="#BCB5B5" stroke-linecap="round"></path>
            <path d="M2.5,5 C3.88071194,5 5,3.88071194 5,2.5 C5,1.11928806 3.88071194,0 2.5,0 C1.11928806,0 0,1.11928806 0,2.5 C0,3.88071194 1.11928806,5 2.5,5 Z M2.5,5" id="Oval 1" fill="#EF3C4D"></path>
        </g>
        <path d="M416.947286,117 L305,117.451507 L305,330.578232" id="Path 6" stroke="#E25944" stroke-dasharray="2"></path>
    </g>
</svg>