<?xml version="1.0" encoding="UTF-8" standalone="no"?>
<svg width="512px" height="365px" viewBox="0 0 512 365" version="1.1" xmlns="http://www.w3.org/2000/svg" xmlns:xlink="http://www.w3.org/1999/xlink" xmlns:sketch="http://www.bohemiancoding.com/sketch/ns">
    <title>top-kimono-5</title>
    <description>Created with Sketch (http://www.bohemiancoding.com/sketch)</description>
    <defs></defs>
    <g id="Page 1" stroke="none" stroke-width="1" fill="none" fill-rule="evenodd">
        <path d="M122.165093,52.0809411 C122.165093,52.0809411 148.880198,69.6226314 166.86043,69.6226314 C178.577327,69.6226314 190.302989,53.603907 201.94381,53.3965679 C213.751494,53.1862567 225.468208,69.7605952 237.027191,69.6226321 C248.944432,69.480393 262.225519,52.4881981 273.693435,52.0809411 C285.189277,51.6726923 296.376402,69.8237336 307.193952,69.6226328 C319.436524,69.3950405 331.147864,52.8133245 342.277333,52.0809411 C355.165154,51.2328478 365.591214,69.7924451 376.61259,69.6226335 C390.512779,69.4084668 402.885024,54.4129689 413.321179,52.0809411 C413.321179,52.0809411 448.40456,52.0809411 448.40456,52.0809411" id="Line" stroke="#9B9B9B" stroke-linecap="square" stroke-dasharray="2"></path>
        <path d="M465.507708,70.0611737 L465.507708,104.706012 C462.783758,115.41168 456.969939,127.509368 456.969939,139.789393 C456.969939,151.596515 464.692994,163.383305 465.507708,174.872773 C466.373272,187.07936 456.732408,198.903704 456.969939,209.956154 C457.250278,223.000456 463.050534,234.851684 465.507709,245.039535 C465.507709,245.039535 465.507708,279.684373 465.507708,279.684373" id="Line" stroke="#979797" stroke-linecap="square" stroke-dasharray="2"></path>
        <path d="M413.321172,69.6226314 C403.361036,72.0424422 391.630739,86.8208049 378.237792,87.1643211 C367.216274,87.4470124 355.156983,68.6827672 342.27734,69.6226314 C331.155289,70.4342399 319.408225,86.8884822 307.193946,87.1643221 C295.881319,87.4197989 284.134843,69.1606524 272.110565,69.6226314 C260.669501,70.062203 248.920778,87.0107015 237.027184,87.1643213 C225.476153,87.3135171 213.748435,69.395171 201.94381,69.6226314 C190.306057,69.846876 178.579917,87.1643218 166.86043,87.1643218 C149.318742,87.1643235 121.937257,69.6226315 121.937257,69.6226315 L121.937257,122.247702 C121.937257,167.127499 114.235356,175.311315 114.235359,211.422329 C114.235356,245.039534 114.849907,280.125497 131.818443,280.125497 C131.818443,280.125496 447.527475,281 447.527475,281 C447.527475,281 447.293002,256.650722 447.527468,245.039534 C447.710758,235.962669 441.984943,225.417228 440.952279,211.422329 C440.163696,200.735284 447.799407,187.875952 447.527468,175.294231 C447.285227,164.086534 440.358986,151.864553 439.70306,139.789392 C439.076522,128.255243 447.527469,116.500575 447.527468,104.706012 L447.527468,69.6226315 C447.527468,69.6226315 413.321172,69.6226315 413.321172,69.6226314 Z M413.321172,69.6226314" id="Rectangle 2" stroke="#979797" fill="#D5FEFF"></path>
        <path d="M150.740403,140 C133.198713,140 131.777049,158.736046 131.777049,176.277737 C131.777049,193.819427 141.753935,209.956154 141.753935,209.956154 L166.86043,209.956154 L159.449422,154.418578 C160.000001,141.576392 150.740403,140 150.740403,140 Z M150.740403,140" id="Rectangle 4" stroke="#979797" fill="#D5FEFF"></path>
        <path d="M149.562327,140 C160.412154,145.528834 160.412161,166.519779 160.412154,210 C160.41215,253.480221 149.562328,279.79686 132.467052,279.79686 L448.187927,281.134048 C448.187927,281.134048 449,262.5 449,245 C448.999998,227.5 441.2959,221.443733 441.295901,210 C441.295901,198.556267 448.999999,190.12109 449,174.999998 C449,159.878906 440.108456,148.270032 440.108456,140.292801 C440.108456,140.292801 147.132125,140 149.562327,140 Z M149.562327,140" id="Rectangle 3" stroke="#979797" fill="#49F0F4"></path>
        <path d="M113.438961,157 L450.561039,157" id="Line" stroke="#D70014" stroke-width="2" stroke-linecap="square" stroke-dasharray="4"></path>
        <text id="1 cm" fill="#000000" transform="translate(86.000000, 173.000000) rotate(-90.000000) translate(-86.000000, -173.000000) " font-family="Roboto" font-size="14" font-weight="normal" x="70" y="179.463867">
            <tspan>1 cm</tspan>
        </text>
        <text id="2 cm" fill="#000000" transform="translate(48.000000, 210.000000) rotate(-90.000000) translate(-48.000000, -210.000000) " font-family="Roboto" font-size="14" font-weight="normal" x="32" y="216.463867">
            <tspan>2 cm</tspan>
        </text>
        <path d="M97.5,140.435897 L97.5,207.564103" id="Line" stroke="#4A4A4A" stroke-linecap="square" fill="#4A4A4A"></path>
        <path id="Line decoration-1" d="M97.5,207.435898 C98.55,203.655898 99.45,200.415898 100.5,196.635898 C98.4,196.635898 96.6,196.635898 94.5,196.635898 C95.55,200.415898 96.45,203.655898 97.5,207.435898 C97.5,207.435898 97.5,207.435898 97.5,207.435898 Z M97.5,207.435898" stroke="#4A4A4A" stroke-linecap="square" fill="#4A4A4A"></path>
        <path id="Line decoration-2" d="M97.5,141.235897 C98.55,145.015898 99.45,148.255898 100.5,152.035898 C98.4,152.035898 96.6,152.035898 94.5,152.035897 C95.55,148.255897 96.45,145.015897 97.5,141.235897 C97.5,141.235897 97.5,141.235897 97.5,141.235897 Z M97.5,141.235897" stroke="#4A4A4A" stroke-linecap="square" fill="#4A4A4A"></path>
        <path d="M62.5,140.438542 L62.5,280.000005" id="Line" stroke="#4A4A4A" stroke-linecap="square" fill="#4A4A4A"></path>
        <path id="Line decoration-1" d="M62.5,279.438542 C63.55,275.658542 64.45,272.418542 65.5,268.638542 C63.4,268.638542 61.6,268.638542 59.5,268.638542 C60.55,272.418542 61.45,275.658542 62.5,279.438542 C62.5,279.438542 62.5,279.438542 62.5,279.438542 Z M62.5,279.438542" stroke="#4A4A4A" stroke-linecap="square" fill="#4A4A4A"></path>
        <path id="Line decoration-2" d="M62.5,141.238542 C63.55,145.018542 64.45,148.258542 65.5,152.038542 C63.4,152.038542 61.6,152.038542 59.5,152.038542 C60.55,148.258542 61.45,145.018542 62.5,141.238542 C62.5,141.238542 62.5,141.238542 62.5,141.238542 Z M62.5,141.238542" stroke="#4A4A4A" stroke-linecap="square" fill="#4A4A4A"></path>
    </g>
</svg>